<?xml version="1.0" encoding="UTF-8" standalone="no"?>
<!-- Generator: Adobe Illustrator 14.0.0, SVG Export Plug-In . SVG Version: 6.00 Build 43363)  -->

<svg
   xmlns:dc="http://purl.org/dc/elements/1.1/"
   xmlns:cc="http://creativecommons.org/ns#"
   xmlns:rdf="http://www.w3.org/1999/02/22-rdf-syntax-ns#"
   xmlns:svg="http://www.w3.org/2000/svg"
   xmlns="http://www.w3.org/2000/svg"
   xmlns:sodipodi="http://sodipodi.sourceforge.net/DTD/sodipodi-0.dtd"
   xmlns:inkscape="http://www.inkscape.org/namespaces/inkscape"
   version="1.1"
   id="Calque_1"
   x="0px"
   y="0px"
   width="435.48038"
   height="263.61719"
   viewBox="0 0 435.48039 263.6172"
   enable-background="new 0 0 449.58 449.58"
   xml:space="preserve"
   inkscape:version="0.48.0 r9654"
   sodipodi:docname="avion.svg"><metadata
   id="metadata86"><rdf:RDF><cc:Work
       rdf:about=""><dc:format>image/svg+xml</dc:format><dc:type
         rdf:resource="http://purl.org/dc/dcmitype/StillImage" /></cc:Work></rdf:RDF></metadata><defs
   id="defs84" /><sodipodi:namedview
   pagecolor="#ffffff"
   bordercolor="#666666"
   borderopacity="1"
   objecttolerance="10"
   gridtolerance="10"
   guidetolerance="10"
   inkscape:pageopacity="0"
   inkscape:pageshadow="2"
   inkscape:window-width="640"
   inkscape:window-height="480"
   id="namedview82"
   showgrid="false"
   fit-margin-top="0"
   fit-margin-left="0"
   fit-margin-right="0"
   fit-margin-bottom="0"
   inkscape:zoom="0.66506519"
   inkscape:cx="218.05379"
   inkscape:cy="131.57479"
   inkscape:window-x="0"
   inkscape:window-y="25"
   inkscape:window-maximized="0"
   inkscape:current-layer="Calque_1" />
<g
   id="NgqFPU_1_"
   transform="matrix(0,1,-1,0,442.29638,-92.667793)">
	<g
   id="g4">
		<g
   id="g6">
			<path
   clip-rule="evenodd"
   d="m 189.739,13.056 c 21.238,-2.356 47.528,-2.821 68.634,0 2.236,-0.323 1.757,-3.363 2.88,-4.8 37.617,11.819 65.726,33.147 82.553,65.755 7.618,16.617 12.802,37.971 10.56,62.875 -1.513,10.807 -3.529,21.108 -6.72,30.238 -3.154,9.165 -7.78,16.857 -13.438,23.518 -1.76,0 -3.52,0 -5.279,0 -3.929,8.551 -8.762,16.196 -12.479,24.958 -3.52,0 -7.039,0 -10.559,0 -1.105,1.455 -1.333,3.787 -1.92,5.759 -3.646,1.794 -6.748,4.131 -10.079,6.24 -1.468,1.252 -3.715,1.725 -4.8,3.359 -1.886,0.294 -3.723,3.183 -5.279,0.96 -2.868,-0.185 -0.198,-3.354 0,-4.799 0.171,-2.389 1.343,-3.776 1.439,-6.24 1.485,-3.474 2.08,-7.839 3.359,-11.519 0.897,-22.639 0.596,-46.556 -1.92,-67.194 -0.903,-10.775 -2.819,-20.539 -4.799,-30.238 -2.651,-9.028 -4.522,-18.836 -11.999,-23.038 -1.815,-0.819 -6.256,-0.222 -7.2,-0.479 0,-13.279 0,-26.558 0,-39.837 -24.319,-1.118 -50.714,-0.161 -75.833,-0.48 -1.12,12.479 -0.161,27.038 -0.48,40.317 -2.123,-0.691 -3.497,-0.271 -5.759,0 -3.223,2.057 -5.887,4.672 -8.159,7.679 -6.625,14.498 -9.1,33.157 -10.559,52.795 -1.464,19.693 -1.689,40.712 -0.96,60.955 1.014,3.786 1.942,7.657 3.359,11.039 0.031,2.369 1.41,3.39 1.44,5.76 0.682,1.099 1.964,4.087 1.44,4.799 -2.162,0.991 -4.626,2.055 -6.239,0 -1.792,-1.087 -3.329,-2.431 -5.28,-3.36 -3.456,-2.304 -6.738,-4.781 -10.559,-6.719 -0.297,-2.103 -1.245,-3.554 -1.44,-5.759 -3.839,0 -7.679,0 -11.519,0 -3.166,-8.834 -8.092,-15.906 -11.519,-24.478 -1.16,-0.92 -3.856,-0.303 -5.759,-0.48 -10.025,-15.893 -18.247,-33.589 -20.639,-57.115 -0.753,-18.832 2.574,-33.583 6.72,-47.516 5.005,-13.074 11.46,-24.697 19.198,-35.037 8.353,-9.726 17.635,-18.522 28.798,-25.438 11.074,-7.004 23.487,-12.67 37.437,-16.799 0.821,0.101 1.243,-0.818 1.44,0 0.935,1.142 1.208,2.95 1.918,4.319 z m -5.76,4.32 c -10.987,3.432 -20.704,8.267 -29.758,13.918 -2.513,1.569 -4.988,3.323 -7.199,4.32 -0.152,0.068 -0.308,0.841 -0.48,0.96 -2.014,1.396 -4.009,3.051 -5.76,3.84 -0.129,0.059 -0.34,0.842 -0.48,0.96 -1.189,1.006 -2.214,1.396 -3.359,2.399 -0.506,0.443 -0.983,1.009 -1.44,1.44 -16.882,15.96 -29.299,36.99 -31.677,67.194 0,5.76 0,11.519 0,17.279 1.923,21.915 8.067,39.608 17.758,53.755 0.727,1.193 4.134,-0.294 4.8,0.96 3.509,5.703 6.396,13.296 9.599,18.239 1.028,1.586 1.201,3.613 2.88,4.319 3.683,-1.116 9.437,-0.163 13.918,-0.48 0,-7.999 0,-15.999 0,-23.998 -2.046,-4.993 -4.166,-9.913 -6.239,-14.878 -0.535,-1.225 -3.712,0.192 -4.32,-0.96 -6.653,-13.186 -12.711,-26.966 -13.439,-46.076 0.915,-10.925 2.875,-20.804 6.72,-28.798 1.068,-4.851 3.802,-8.037 5.279,-12.479 2.622,-3.297 4.032,-7.807 7.2,-10.559 1.86,-4.059 5.194,-6.645 7.679,-10.079 3.134,-2.785 6.059,-5.78 9.599,-8.159 6.859,-5.141 14.732,-9.267 24.478,-11.519 11.839,0 23.678,0 35.517,0 2.485,-2.794 3.73,-6.83 6.24,-9.599 0.297,-2.263 2.177,-2.942 2.399,-5.28 0.948,-0.332 1.28,-1.28 1.44,-2.4 0.654,-0.086 2.328,-2.281 0.48,-1.92 -15.359,0 -30.717,0 -46.076,0 -2.459,0.06 -1.457,-3.343 -4.319,-2.879 -0.613,0.026 -0.665,0.615 -1.44,0.48 z"
   id="path8"
   inkscape:connector-curvature="0"
   style="fill:#0055a5;fill-rule:evenodd" />
			<path
   clip-rule="evenodd"
   d="m 185.419,16.896 c 2.863,-0.463 1.86,2.939 4.319,2.879 15.359,0 30.717,0 46.076,0 1.848,-0.361 0.174,1.833 -0.48,1.92 -0.16,1.12 -0.492,2.068 -1.44,2.4 -0.222,2.337 -2.102,3.017 -2.399,5.28 -2.51,2.77 -3.754,6.805 -6.24,9.599 -11.839,0 -23.678,0 -35.517,0 -9.746,2.252 -17.619,6.378 -24.478,11.519 -3.54,2.379 -6.465,5.374 -9.599,8.159 -2.485,3.435 -5.819,6.02 -7.679,10.079 -3.167,2.752 -4.578,7.262 -7.2,10.559 -1.478,4.442 -4.211,7.628 -5.279,12.479 -3.845,7.994 -5.805,17.873 -6.72,28.798 0.728,19.11 6.786,32.891 13.439,46.076 0.607,1.152 3.785,-0.265 4.32,0.96 2.073,4.966 4.193,9.885 6.239,14.878 0,8 0,15.999 0,23.998 -4.482,0.317 -10.235,-0.636 -13.918,0.48 -1.679,-0.706 -1.852,-2.733 -2.88,-4.319 -3.203,-4.943 -6.09,-12.536 -9.599,-18.239 -0.666,-1.254 -4.073,0.233 -4.8,-0.96 -9.691,-14.147 -15.835,-31.84 -17.758,-53.755 0,-5.76 0,-11.519 0,-17.279 2.378,-30.205 14.795,-51.234 31.677,-67.194 0.457,-0.431 0.934,-0.997 1.44,-1.44 1.145,-1.003 2.17,-1.393 3.359,-2.399 0.14,-0.118 0.351,-0.901 0.48,-0.96 1.75,-0.789 3.746,-2.444 5.76,-3.84 0.172,-0.119 0.328,-0.892 0.48,-0.96 2.211,-0.997 4.686,-2.75 7.199,-4.32 9.054,-5.652 18.771,-10.486 29.758,-13.918 0.775,0.135 0.827,-0.454 1.44,-0.48 z"
   id="path10"
   inkscape:connector-curvature="0"
   style="fill:#00adef;fill-rule:evenodd" />
			<path
   clip-rule="evenodd"
   d="m 188.299,49.533 c 24.318,0 48.636,0 72.954,0 0,55.035 0,110.071 0,165.106 -0.104,3.416 -2.837,4.203 -3.84,6.719 1.56,1.418 2.104,-1.088 2.88,-1.92 0.866,-1.054 1.873,-1.967 2.399,-3.36 0.32,-41.917 -0.639,-85.112 0.48,-126.229 5.631,-1.364 9.495,2.04 11.519,5.76 2.302,3.778 3.754,8.406 4.8,13.439 2.985,9.173 4.234,20.083 5.76,30.717 2.371,21.333 3.079,46.259 1.92,69.594 -1.902,7.537 -3.973,14.906 -6.239,22.078 0.188,2.211 3.65,1.149 3.84,3.36 0.854,28.423 0.823,57.731 1.439,86.393 -5.229,-1.649 -10.089,-3.669 -15.358,-5.279 -4.53,-2.189 -10.506,-2.934 -14.399,-5.76 -1.111,-17.127 -0.166,-36.311 -0.479,-54.235 0.658,-3.181 0.222,-7.457 1.439,-10.079 -2.441,-3.958 -4.901,-7.897 -7.679,-11.519 -2.561,0 -5.12,0 -7.68,0 -3.748,0.092 -4.104,3.575 -7.2,4.32 -6.559,0 -13.119,0 -19.678,0 -3.434,-0.246 -3.86,-3.5 -7.199,-3.84 -2.56,0 -5.12,0 -7.68,0 -2.472,0.728 -2.941,3.458 -4.319,5.279 -1.549,1.651 -2.415,3.985 -3.84,5.76 2.476,18.991 1.501,43.896 0.96,64.314 -1.94,1.474 -4.386,2.548 -6.72,3.36 -7.112,2.473 -15.317,4.733 -23.038,7.199 0.009,-28.789 1.157,-56.438 0.96,-85.433 -0.033,-2.752 3.445,-1.995 4.8,-3.36 -2.438,-7.002 -4.636,-14.243 -6.719,-21.598 0.148,-1.748 -0.077,-3.124 -0.48,-4.32 -0.201,-23.719 0.161,-46.875 2.399,-68.154 1.138,-10.542 2.408,-20.95 5.28,-29.757 1.134,-4.786 2.623,-9.216 5.28,-12.479 1.942,-3.181 5.621,-7.172 10.559,-5.76 1.824,-0.385 0.61,2.27 0.959,3.36 0,1.28 0,2.56 0,3.84 0,39.517 0,79.033 0,118.55 1.145,2.375 2.803,4.237 4.8,5.759 1.401,-2.981 -3.979,-2.958 -3.36,-6.719 0,-54.556 0,-109.111 0,-163.667 -0.041,-0.68 -0.079,-1.358 0.48,-1.439 z m 4.32,7.199 c 0,52.156 0,104.312 0,156.467 1.399,1.801 2.999,3.4 4.8,4.799 1.465,1.734 5.728,0.671 8.639,0.96 -0.178,-17.42 0.441,-35.638 -0.48,-52.315 -2.032,-15.567 -3.589,-31.608 -4.8,-47.996 0.744,-1.176 0.716,-3.124 0.96,-4.8 1.548,-2.611 3.138,-5.182 4.8,-7.679 2.277,-1.882 4.642,-3.678 7.199,-5.28 1.509,-0.57 2.54,-1.62 4.32,-1.919 0.546,-1.534 3.705,-0.456 3.839,-2.4 0,-13.759 0,-27.518 0,-41.277 -9.599,0 -19.198,0 -28.797,0 -0.559,0.082 -0.521,0.759 -0.48,1.44 z m 74.873,44.157 c 0,41.277 0,82.553 0,123.83 -0.071,3.448 -3.076,3.963 -2.88,7.679 0,23.198 0,46.396 0,69.594 0,1.6 0,3.2 0,4.8 0.452,1.308 2.422,1.099 3.84,1.439 0.845,0.69 1.095,0.44 0.96,-0.96 0,-1.119 0,-2.239 0,-3.359 -0.319,-67.833 0.64,-136.949 -0.479,-203.983 -0.614,-0.026 -0.665,-0.615 -1.44,-0.479 -10e-4,0.479 -10e-4,0.959 -10e-4,1.439 z m -91.192,0.48 c -6.395,12.964 -7.761,30.956 -9.599,48.476 -0.969,18.389 -1.643,37.074 -1.44,56.635 1.504,6.976 3.792,13.167 5.28,20.159 -0.596,28.361 -3.199,57.275 -2.88,84.953 2.166,-1.194 4.578,-2.142 7.2,-2.88 0.202,-34.525 1.439,-69.704 1.439,-104.632 0,-35.074 1.225,-70.114 0.96,-104.151 -0.675,0.125 -0.547,1.052 -0.96,1.44 z m 59.035,122.39 c -0.989,-3.171 -1.25,-7.069 -2.879,-9.599 -0.877,-1.203 -0.999,-3.161 -2.4,-3.84 -0.009,-2.071 -2.391,-1.769 -2.4,-3.84 0,-2.56 0,-5.12 0,-7.679 0.975,-2.385 4.136,-2.584 4.8,-5.279 0.182,-9.417 0.97,-18.228 1.439,-27.358 1.116,-1.444 2.134,-2.986 3.36,-4.32 1.965,-12.913 4.369,-25.389 6.72,-37.917 -1.123,-5.757 -3.452,-10.307 -6.72,-13.918 -2.715,-1.256 -5.279,-3.531 -7.679,-3.84 -12.638,-1.625 -23.441,4.874 -23.998,16.798 2.249,12.95 4.853,25.545 6.719,38.877 0.88,2.32 3.301,3.099 3.84,5.76 -0.179,9.297 0.854,17.384 0.96,26.397 1.145,2.535 4.505,2.854 5.279,5.76 0,2.4 0,4.8 0,7.199 -6.184,4.855 -8.488,13.59 -8.159,24.958 1.76,0 3.52,0 5.28,0 1.549,0.43 0.674,-1.565 1.44,-1.92 0.915,-0.205 0.868,-1.371 2.399,-0.96 1.44,0 2.88,0 4.32,0 1.653,0.267 0.674,3.166 2.4,3.36 1.76,0 3.52,0 5.279,0 0,-2.88 0,-5.759 0,-8.639 z"
   id="path12"
   inkscape:connector-curvature="0"
   style="fill:#0055a5;fill-rule:evenodd" />
			<path
   clip-rule="evenodd"
   d="m 193.099,55.292 c 9.599,0 19.198,0 28.797,0 0,13.759 0,27.518 0,41.277 -0.135,1.944 -3.293,0.866 -3.839,2.4 -1.78,0.299 -2.811,1.349 -4.32,1.919 -2.558,1.602 -4.922,3.397 -7.199,5.28 -1.662,2.498 -3.251,5.068 -4.8,7.679 -0.244,1.676 -0.216,3.624 -0.96,4.8 1.21,16.388 2.768,32.429 4.8,47.996 0.921,16.678 0.302,34.896 0.48,52.315 -2.911,-0.289 -7.174,0.774 -8.639,-0.96 -1.801,-1.399 -3.401,-2.999 -4.8,-4.799 0,-52.156 0,-104.311 0,-156.467 -0.041,-0.681 -0.079,-1.358 0.48,-1.44 z"
   id="path14"
   inkscape:connector-curvature="0"
   style="fill:#00adef;fill-rule:evenodd" />
			<path
   clip-rule="evenodd"
   d="m 267.492,99.449 c 0.775,-0.135 0.826,0.454 1.44,0.479 1.119,67.035 0.16,136.15 0.479,203.983 0,1.12 0,2.24 0,3.359 0.135,1.4 -0.115,1.65 -0.96,0.96 -1.418,-0.341 -3.388,-0.132 -3.84,-1.439 0,-1.6 0,-3.2 0,-4.8 0,-23.198 0,-46.396 0,-69.594 -0.196,-3.716 2.809,-4.231 2.88,-7.679 0,-41.277 0,-82.553 0,-123.83 0.001,-0.479 0.001,-0.959 0.001,-1.439 z"
   id="path16"
   inkscape:connector-curvature="0"
   style="fill:#00adef;fill-rule:evenodd" />
			<path
   clip-rule="evenodd"
   d="m 177.26,99.929 c 0.265,34.038 -0.96,69.078 -0.96,104.151 0,34.928 -1.238,70.106 -1.439,104.632 -2.622,0.738 -5.034,1.686 -7.2,2.88 -0.319,-27.678 2.284,-56.592 2.88,-84.953 -1.488,-6.992 -3.776,-13.183 -5.28,-20.159 -0.203,-19.561 0.471,-38.246 1.44,-56.635 1.838,-17.52 3.205,-35.512 9.599,-48.476 0.413,-0.388 0.285,-1.315 0.96,-1.44 z"
   id="path18"
   inkscape:connector-curvature="0"
   style="fill:#00adef;fill-rule:evenodd" />
			<path
   clip-rule="evenodd"
   d="m 235.335,232.398 c -1.76,0 -3.52,0 -5.279,0 -1.726,-0.194 -0.747,-3.093 -2.4,-3.36 -1.44,0 -2.88,0 -4.32,0 -1.531,-0.411 -1.484,0.755 -2.399,0.96 -0.766,0.354 0.109,2.35 -1.44,1.92 -1.76,0 -3.52,0 -5.28,0 -0.329,-11.368 1.976,-20.103 8.159,-24.958 0,-2.399 0,-4.799 0,-7.199 -0.774,-2.906 -4.134,-3.225 -5.279,-5.76 -0.106,-9.013 -1.139,-17.1 -0.96,-26.397 -0.539,-2.661 -2.96,-3.439 -3.84,-5.76 -1.866,-13.332 -4.471,-25.927 -6.719,-38.877 0.557,-11.924 11.36,-18.424 23.998,-16.798 2.4,0.309 4.964,2.583 7.679,3.84 3.268,3.612 5.597,8.162 6.72,13.918 -2.351,12.528 -4.754,25.004 -6.72,37.917 -1.226,1.334 -2.244,2.875 -3.36,4.32 -0.469,9.13 -1.258,17.94 -1.439,27.358 -0.664,2.695 -3.825,2.895 -4.8,5.279 0,2.56 0,5.12 0,7.679 0.009,2.071 2.391,1.769 2.4,3.84 1.401,0.679 1.523,2.637 2.4,3.84 1.629,2.53 1.891,6.428 2.879,9.599 0,2.88 0,5.759 0,8.639 z m -4.799,-19.678 c -1.201,-2.159 -3.343,-3.377 -4.32,-5.76 0,-2.88 0,-5.759 0,-8.639 1.013,-2.347 4.212,-2.508 4.8,-5.28 0.422,-9.017 1.173,-17.705 1.44,-26.877 0.745,-2.135 2.734,-3.026 3.359,-5.28 2.4,-12.158 4.461,-24.657 6.72,-36.957 -0.847,-5.552 -3.213,-9.586 -6.24,-12.958 -11.126,-8.456 -29.45,-1.817 -29.277,11.999 2.122,13.077 4.674,25.724 6.719,38.877 0.932,1.789 2.718,2.722 3.36,4.8 0.787,8.652 0.653,18.226 1.44,26.878 1.14,2.539 4.407,2.952 5.279,5.759 0,2.72 0,5.439 0,8.159 -2.159,1.521 -3.521,3.838 -5.279,5.76 -0.8,2.72 -1.858,5.182 -2.4,8.159 0.159,1.919 -0.855,2.664 -0.48,4.8 0,0.96 0,1.919 0,2.879 0.109,0.851 -0.484,2.404 0.96,1.92 2.173,0.414 2.99,-0.53 3.36,-1.92 1.057,-0.703 2.061,-1.458 3.839,-1.439 0.8,0 1.6,0 2.4,0 1.796,0.124 2.728,1.112 3.84,1.919 -0.305,2.225 2.624,1.216 4.319,1.44 -0.103,-7.257 -1.527,-13.192 -3.839,-18.239 z"
   id="path20"
   inkscape:connector-curvature="0"
   style="fill:#040b12;fill-rule:evenodd" />
			<path
   clip-rule="evenodd"
   d="m 234.375,230.958 c -1.695,-0.224 -4.624,0.785 -4.319,-1.44 -1.112,-0.807 -2.044,-1.795 -3.84,-1.919 -0.8,0 -1.6,0 -2.4,0 -1.778,-0.019 -2.782,0.737 -3.839,1.439 -0.37,1.39 -1.187,2.333 -3.36,1.92 -1.444,0.484 -0.851,-1.069 -0.96,-1.92 0,-0.96 0,-1.919 0,-2.879 -0.375,-2.136 0.639,-2.881 0.48,-4.8 0.542,-2.978 1.6,-5.439 2.4,-8.159 1.758,-1.921 3.121,-4.239 5.279,-5.76 0,-2.72 0,-5.439 0,-8.159 -0.872,-2.808 -4.139,-3.22 -5.279,-5.759 -0.787,-8.652 -0.653,-18.226 -1.44,-26.878 -0.642,-2.078 -2.428,-3.011 -3.36,-4.8 -2.045,-13.153 -4.597,-25.8 -6.719,-38.877 -0.173,-13.816 18.151,-20.454 29.277,-11.999 3.027,3.373 5.393,7.406 6.24,12.958 -2.259,12.3 -4.319,24.799 -6.72,36.957 -0.625,2.254 -2.615,3.145 -3.359,5.28 -0.267,9.172 -1.018,17.86 -1.44,26.877 -0.588,2.772 -3.787,2.933 -4.8,5.28 0,2.88 0,5.759 0,8.639 0.977,2.383 3.119,3.601 4.32,5.76 2.312,5.048 3.736,10.983 3.839,18.239 z M 209.417,122.487 c 1.93,12.789 4.983,24.454 6.72,37.437 1.123,2.078 2.854,3.546 3.36,6.24 -0.331,6.25 0.811,11.028 0.48,17.278 0.852,0.909 0.35,3.17 0.48,4.8 0,0.96 0,1.92 0,2.88 0.109,0.85 -0.484,2.403 0.959,1.919 1.613,0.493 0.748,-1.493 0.96,-2.399 0,-1.12 0,-2.24 0,-3.36 0,-16.319 0,-32.637 0,-48.956 -6.183,-2.136 -10.635,-6.003 -10.079,-14.878 0.975,-2.385 2.138,-4.583 3.84,-6.24 1.356,-1.204 3.042,-2.077 4.8,-2.88 2.434,-0.126 4.092,-1.027 3.359,-4.319 -0.64,0 -1.28,0 -1.92,0 -6.846,1.632 -11.77,5.187 -12.959,12.478 z m 6.72,0.48 c -1.948,7.422 2.671,12.343 9.599,12.479 4.893,-1.187 8.096,-4.063 8.639,-9.6 -0.347,-2.853 -1.727,-4.673 -2.879,-6.719 -2.186,-1.023 -5.434,-3.515 -8.64,-1.92 -3.555,0.605 -5.641,2.679 -6.719,5.76 z m 1.92,105.591 c 1.49,-1.549 3.38,-2.699 5.279,-3.839 -0.316,-4.003 0.636,-9.275 -0.48,-12.479 -2.733,3.989 -5.266,10.73 -4.799,16.318 z"
   id="path22"
   inkscape:connector-curvature="0"
   style="fill:#0055a5;fill-rule:evenodd" />
			<path
   clip-rule="evenodd"
   d="m 222.376,110.008 c 0.64,0 1.28,0 1.92,0 0.732,3.292 -0.926,4.193 -3.359,4.319 -1.757,0.803 -3.443,1.676 -4.8,2.88 -1.702,1.657 -2.865,3.854 -3.84,6.24 -0.556,8.875 3.896,12.743 10.079,14.878 0,16.319 0,32.637 0,48.956 0,1.12 0,2.24 0,3.36 -0.212,0.907 0.653,2.893 -0.96,2.399 -1.443,0.484 -0.85,-1.069 -0.959,-1.919 0,-0.96 0,-1.92 0,-2.88 -0.13,-1.629 0.372,-3.891 -0.48,-4.8 0.331,-6.25 -0.811,-11.028 -0.48,-17.278 -0.506,-2.694 -2.237,-4.162 -3.36,-6.24 -1.736,-12.982 -4.79,-24.647 -6.72,-37.437 1.189,-7.29 6.113,-10.845 12.959,-12.478 z"
   id="path24"
   inkscape:connector-curvature="0"
   style="fill:#00adef;fill-rule:evenodd" />
			<path
   clip-rule="evenodd"
   d="m 222.856,117.208 c 3.206,-1.595 6.454,0.897 8.64,1.92 1.153,2.046 2.533,3.867 2.879,6.719 -0.543,5.536 -3.746,8.413 -8.639,9.6 -6.928,-0.137 -11.547,-5.058 -9.599,-12.479 1.078,-3.082 3.164,-5.156 6.719,-5.76 z m 0.96,16.798 c 5.654,0.054 8.405,-2.794 9.12,-7.68 0.246,-9.587 -12.858,-10.763 -15.839,-2.879 0,1.76 0,3.52 0,5.279 1.54,2.461 3.296,4.704 6.719,5.28 z"
   id="path26"
   inkscape:connector-curvature="0"
   style="fill:#040b12;fill-rule:evenodd" />
			<path
   clip-rule="evenodd"
   d="m 217.097,128.727 c 0,-1.76 0,-3.52 0,-5.279 2.98,-7.883 16.084,-6.708 15.839,2.879 -0.715,4.885 -3.465,7.734 -9.12,7.68 -3.423,-0.577 -5.179,-2.82 -6.719,-5.28 z m 1.44,-3.36 c 0.338,3.342 2,5.359 5.279,5.76 0,-3.36 0,-6.72 0,-10.079 -2.999,0.2 -4.676,1.723 -5.279,4.319 z"
   id="path28"
   inkscape:connector-curvature="0"
   style="fill:#0055a5;fill-rule:evenodd" />
			<path
   clip-rule="evenodd"
   d="m 223.816,121.047 c 0,3.359 0,6.719 0,10.079 -3.279,-0.4 -4.941,-2.418 -5.279,-5.76 0.603,-2.595 2.28,-4.118 5.279,-4.319 z"
   id="path30"
   inkscape:connector-curvature="0"
   style="fill:#00adef;fill-rule:evenodd" />
			<path
   clip-rule="evenodd"
   d="m 222.856,212.24 c 1.116,3.204 0.164,8.476 0.48,12.479 -1.899,1.141 -3.789,2.291 -5.279,3.839 -0.467,-5.588 2.066,-12.329 4.799,-16.318 z"
   id="path32"
   inkscape:connector-curvature="0"
   style="fill:#00adef;fill-rule:evenodd" />
			<path
   clip-rule="evenodd"
   d="m 199.818,236.238 c 1.774,-0.798 6.866,-0.798 8.64,0 -2.88,0 -5.76,0 -8.64,0 z"
   id="path34"
   inkscape:connector-curvature="0"
   style="fill:#0055a5;fill-rule:evenodd" />
			<path
   clip-rule="evenodd"
   d="m 286.211,240.077 c 0.798,1.773 0.798,6.866 0,8.64 0,-2.88 0,-5.76 0,-8.64 z"
   id="path36"
   inkscape:connector-curvature="0"
   style="fill:#0055a5;fill-rule:evenodd" />
			<path
   clip-rule="evenodd"
   d="m 123.504,257.355 c 3.636,3.641 2.4,10.732 2.4,17.279 0,6.539 0,13.469 0,19.198 -0.649,2.409 1.646,1.874 1.92,3.359 0,2.24 0,4.479 0,6.72 11.968,-3.71 22.567,-8.79 34.557,-12.479 0.32,10.238 -0.819,19.019 -0.48,29.277 -0.269,2.451 -3.142,2.298 -3.84,4.319 -1.96,0.76 -2.941,2.498 -4.8,3.359 -2.535,2.905 -6.221,4.658 -8.639,7.68 -2.146,0.574 -2.814,2.626 -4.799,3.359 -1.082,1.639 -3.039,2.401 -4.32,3.84 -2.893,2.387 -5.979,4.581 -8.639,7.199 0.18,16.499 -0.43,32.208 -1.44,47.517 -1.018,15.301 -1.979,30.658 -6.24,42.717 -2.399,0 -4.799,0 -7.199,0 -4.865,-13.854 -5.363,-32.074 -6.24,-49.916 -0.941,-17.777 -0.287,-37.149 -0.48,-55.676 0.216,-2.455 -1.852,-2.627 -1.919,-4.8 0,-11.199 0,-22.397 0,-33.597 -0.11,-2.51 2.887,-1.913 2.879,-4.32 0.648,-11.351 -1.477,-25.475 1.44,-34.557 4.153,-1.081 11.159,-1.477 15.839,-0.478 z m -10.559,3.84 c -0.116,-1.237 -0.826,0.659 -1.92,0 -2.763,0.117 -1.757,4.003 -1.92,6.72 0,8.64 0,17.278 0,25.918 -0.036,3.004 -3.286,2.794 -2.88,6.239 0,9.6 0,19.198 0,28.798 -0.327,2.887 1.971,3.148 1.44,6.239 0.286,16.673 -0.593,34.511 0.48,50.396 0.435,16.524 1.055,32.862 4.8,46.076 0,-56.796 0,-113.59 0,-170.386 z"
   id="path38"
   inkscape:connector-curvature="0"
   style="fill:#0055a5;fill-rule:evenodd" />
			<path
   clip-rule="evenodd"
   d="m 194.539,256.876 c 1.118,5.921 0.161,13.918 0.48,20.639 -1.119,-5.922 -0.162,-13.918 -0.48,-20.639 z"
   id="path40"
   inkscape:connector-curvature="0"
   style="fill:#0055a5;fill-rule:evenodd" />
			<path
   clip-rule="evenodd"
   d="m 326.527,256.876 c 5.279,0 10.56,0 15.839,0 4.368,8.271 1.645,23.633 2.399,35.517 -0.581,2.981 2.063,2.736 1.92,5.28 0,10.398 0,20.798 0,31.197 -0.231,2.968 -2.691,3.707 -3.359,6.239 0.229,19.18 0.515,36.624 0,55.676 -1.263,17.615 -1.113,36.643 -6.72,49.916 -2.239,0 -4.479,0 -6.719,0 -3.312,-5.774 -3.803,-13.005 -4.8,-20.159 -2.877,-20.644 -3.668,-46.056 -3.36,-70.554 -0.749,-1.971 -2.671,-2.768 -4.319,-3.84 -1.188,-1.372 -2.482,-2.637 -4.319,-3.359 -2.221,-2.899 -5.851,-4.389 -8.159,-7.199 -3.429,-1.852 -5.541,-5.019 -9.119,-6.72 -2.221,-2.899 -5.851,-4.389 -8.16,-7.199 -0.436,-9.804 -0.607,-19.871 -0.479,-30.237 11.081,4.276 22.079,8.638 33.597,12.479 0.92,-1.16 0.304,-3.856 0.48,-5.76 -0.622,-2.701 2.062,-2.098 1.439,-4.8 0.238,-10.321 -0.526,-21.645 0.48,-31.197 1.059,-1.021 0.869,-3.29 2.399,-3.84 -0.02,-0.821 0.357,-1.244 0.96,-1.44 z m 2.401,6.239 c -0.729,1.511 -1.601,2.88 -1.92,4.8 0.216,9.383 0.653,18.545 0.96,27.838 0.098,3.298 -3.812,2.589 -3.36,6.239 0,12.959 0,25.918 0,38.877 0.106,2.134 3.355,1.125 2.88,3.84 -1.141,22.493 -1.508,47.691 0,70.074 0.622,3.377 1.166,6.833 1.44,10.559 1.66,2.5 0.941,7.378 4.799,7.68 0,-55.516 0,-111.031 0,-166.546 0,-0.96 0,-1.92 0,-2.88 -0.109,-0.851 0.484,-2.404 -0.96,-1.92 -0.96,0 -1.919,0 -2.879,0 -0.675,0.125 -0.548,1.053 -0.96,1.439 z m -35.037,54.236 c 7.848,4.632 14.726,10.232 22.558,14.879 0,-7.52 0,-15.038 0,-22.558 -7.772,-3.267 -15.13,-6.949 -22.558,-10.56 0,6.08 0,12.159 0,18.239 z"
   id="path42"
   inkscape:connector-curvature="0"
   style="fill:#0055a5;fill-rule:evenodd" />
			<path
   clip-rule="evenodd"
   d="m 112.945,431.581 c -3.745,-13.214 -4.365,-29.552 -4.8,-46.076 -1.073,-15.885 -0.194,-33.723 -0.48,-50.396 0.531,-3.091 -1.767,-3.353 -1.44,-6.239 0,-9.6 0,-19.198 0,-28.798 -0.406,-3.445 2.844,-3.235 2.88,-6.239 0,-8.64 0,-17.278 0,-25.918 0.163,-2.717 -0.843,-6.603 1.92,-6.72 1.094,0.659 1.804,-1.237 1.92,0 0,56.796 0,113.59 0,170.386 z"
   id="path44"
   inkscape:connector-curvature="0"
   style="fill:#00adef;fill-rule:evenodd" />
			<path
   clip-rule="evenodd"
   d="m 329.888,261.676 c 0.96,0 1.919,0 2.879,0 1.444,-0.484 0.851,1.069 0.96,1.92 0,0.96 0,1.92 0,2.88 0,55.515 0,111.03 0,166.546 -3.857,-0.302 -3.139,-5.18 -4.799,-7.68 -0.274,-3.726 -0.818,-7.182 -1.44,-10.559 -1.508,-22.383 -1.141,-47.581 0,-70.074 0.476,-2.715 -2.773,-1.706 -2.88,-3.84 0,-12.959 0,-25.918 0,-38.877 -0.451,-3.65 3.458,-2.941 3.36,-6.239 -0.307,-9.293 -0.744,-18.455 -0.96,-27.838 0.319,-1.92 1.19,-3.289 1.92,-4.8 0.412,-0.386 0.285,-1.314 0.96,-1.439 z"
   id="path46"
   inkscape:connector-curvature="0"
   style="fill:#00adef;fill-rule:evenodd" />
			<path
   clip-rule="evenodd"
   d="m 255.014,279.435 c 0,8.479 0,16.958 0,25.438 -1.221,0.751 -3.295,-0.962 -4.8,-1.44 -1.639,-0.601 -3.448,-1.031 -4.8,-1.919 -3.341,-1.139 -6.756,-2.203 -9.599,-3.84 -1.971,1.868 -1.984,5.694 -3.359,8.159 -5.44,0 -10.879,0 -16.319,0 -0.83,-2.53 -1.438,-5.282 -2.4,-7.68 -6.652,2.308 -12.546,5.373 -19.198,7.68 0,-8.959 0,-17.919 0,-26.878 6.066,-2.093 12.053,-4.266 17.758,-6.72 1.396,-2.123 3.213,-3.826 4.8,-5.759 2.683,-1.317 5.135,-2.864 9.599,-2.4 1.902,0.658 3.48,1.64 5.28,2.4 1.511,2.009 3.46,3.579 4.319,6.239 6.532,1.947 12.258,4.701 18.719,6.72 z m -40.317,-4.8 c -0.256,6.016 0.484,11.035 0.96,16.318 0.467,2.413 0.98,4.779 1.44,7.199 0.818,2.062 1.016,4.744 4.799,3.84 1.119,-8.48 0.161,-19.038 0.48,-28.317 -0.35,-1.091 0.865,-3.745 -0.96,-3.36 -3.121,0.558 -5.223,2.136 -6.719,4.32 z m -1.44,14.398 c 0,-3.04 0,-6.079 0,-9.119 0,-1.439 0,-2.88 0,-4.319 0.107,-0.816 -0.541,-1.188 -0.48,0 0,0.8 0,1.6 0,2.399 0.035,6.204 -0.287,12.766 0.96,17.759 0.108,-2.508 -0.008,-4.792 -0.48,-6.72 z m 22.078,1.92 c 0.197,1.156 -0.876,1.043 -0.48,2.399 0.263,0.698 -0.561,2.481 0.48,2.4 0,-0.96 0,-1.92 0,-2.88 -0.196,-1.156 0.877,-1.043 0.48,-2.399 0,-2.561 0,-5.12 0,-7.68 -0.196,-1.156 0.877,-1.043 0.48,-2.399 0,-0.96 0,-1.92 0,-2.88 0,-0.48 0,-0.96 0,-1.44 0.002,-0.267 -0.389,-0.545 -0.48,0 0,1.92 0,3.84 0,5.76 -1.112,2.088 -0.166,6.233 -0.48,9.119 z"
   id="path48"
   inkscape:connector-curvature="0"
   style="fill:#0055a5;fill-rule:evenodd" />
			<path
   clip-rule="evenodd"
   d="m 162.861,266.476 c 0,2.72 0,5.439 0,8.159 -0.798,-1.615 -0.798,-6.544 0,-8.159 z"
   id="path50"
   inkscape:connector-curvature="0"
   style="fill:#0055a5;fill-rule:evenodd" />
			<path
   clip-rule="evenodd"
   d="m 255.014,266.955 c -0.316,3.523 0.635,8.313 -0.48,11.039 0.316,-3.523 -0.635,-8.313 0.48,-11.039 z"
   id="path52"
   inkscape:connector-curvature="0"
   style="fill:#0055a5;fill-rule:evenodd" />
			<path
   clip-rule="evenodd"
   d="m 221.416,270.314 c 1.825,-0.385 0.61,2.27 0.96,3.36 -0.319,9.279 0.639,19.837 -0.48,28.317 -3.784,0.904 -3.981,-1.778 -4.799,-3.84 -0.459,-2.42 -0.973,-4.786 -1.44,-7.199 -0.476,-5.283 -1.216,-10.303 -0.96,-16.318 1.496,-2.183 3.598,-3.761 6.719,-4.32 z"
   id="path54"
   inkscape:connector-curvature="0"
   style="fill:#00adef;fill-rule:evenodd" />
			<path
   clip-rule="evenodd"
   d="m 286.69,273.194 c 0.798,1.615 0.798,6.544 0,8.159 0,-2.719 0,-5.439 0,-8.159 z"
   id="path56"
   inkscape:connector-curvature="0"
   style="fill:#0055a5;fill-rule:evenodd" />
			<path
   clip-rule="evenodd"
   d="m 128.784,296.232 c 0.796,0.828 0.796,4.932 0,5.76 0,-1.92 0,-3.84 0,-5.76 z"
   id="path58"
   inkscape:connector-curvature="0"
   style="fill:#0055a5;fill-rule:evenodd" />
			<path
   clip-rule="evenodd"
   d="m 293.891,299.112 c 7.428,3.61 14.785,7.293 22.558,10.56 0,7.52 0,15.038 0,22.558 -7.832,-4.646 -14.71,-10.247 -22.558,-14.879 0,-6.08 0,-12.159 0,-18.239 z"
   id="path60"
   inkscape:connector-curvature="0"
   style="fill:#00adef;fill-rule:evenodd" />
			<path
   clip-rule="evenodd"
   d="m 344.766,355.748 c 0.8,4.483 0.8,12.314 0,16.799 0,-5.6 0,-11.199 0,-16.799 z"
   id="path62"
   inkscape:connector-curvature="0"
   style="fill:#0055a5;fill-rule:evenodd" />
			<path
   clip-rule="evenodd"
   d="m 320.768,373.026 c 0,1.6 0,3.2 0,4.8 -0.794,-0.517 -0.794,-4.282 0,-4.8 z"
   id="path64"
   inkscape:connector-curvature="0"
   style="fill:#0055a5;fill-rule:evenodd" />
			<path
   clip-rule="evenodd"
   d="m 123.984,44.733 c 2.52,-2.92 5.239,-5.64 8.159,-8.159 -2.519,2.92 -5.239,5.64 -8.159,8.159 z"
   id="path66"
   inkscape:connector-curvature="0"
   style="fill:#0055a5;fill-rule:evenodd" />
			<path
   clip-rule="evenodd"
   d="m 162.381,233.838 c 1.919,0.8 0.544,4.895 0.959,7.199 -1.339,-1.38 0.35,-5.788 -0.959,-7.199 z"
   id="path68"
   inkscape:connector-curvature="0"
   style="fill:#0055a5;fill-rule:evenodd" />
			<path
   clip-rule="evenodd"
   d="m 105.266,261.676 c -0.059,7.929 0.079,16.976 0,24.478 -0.025,2.428 0.782,5.513 -0.959,7.199 1.43,-9.449 -0.474,-22.231 0.959,-31.677 z"
   id="path70"
   inkscape:connector-curvature="0"
   style="fill:#0055a5;fill-rule:evenodd" />
			<path
   clip-rule="evenodd"
   d="m 111.505,441.661 c 2.792,-0.247 6.619,0.539 8.639,-0.48 -1.026,1.703 -6.873,1.11 -8.639,0.48 z"
   id="path72"
   inkscape:connector-curvature="0"
   style="fill:#0055a5;fill-rule:evenodd" />
			<path
   clip-rule="evenodd"
   d="m 340.446,251.116 c -0.206,-0.914 -1.034,-1.206 -0.96,-2.399 1.571,1.309 2.624,3.136 2.88,5.76 -0.952,-0.808 -0.765,-2.755 -1.92,-3.361 z"
   id="path74"
   inkscape:connector-curvature="0"
   style="fill:#0055a5;fill-rule:evenodd" />
			<path
   clip-rule="evenodd"
   d="m 213.737,295.753 c -1.247,-4.993 -0.925,-11.555 -0.96,-17.759 0,-0.8 0,-1.6 0,-2.399 -0.061,-1.188 0.587,-0.816 0.48,0 0,1.439 0,2.88 0,4.319 0,3.04 0,6.079 0,9.119 0.472,1.928 0.588,4.212 0.48,6.72 z"
   id="path76"
   inkscape:connector-curvature="0"
   style="fill:#040b12;fill-rule:evenodd" />
			<path
   clip-rule="evenodd"
   d="m 235.815,281.834 c 0,-1.92 0,-3.84 0,-5.76 0.091,-0.545 0.482,-0.267 0.48,0 0,0.48 0,0.96 0,1.44 0,0.96 0,1.92 0,2.88 0.397,1.356 -0.676,1.243 -0.48,2.399 0,2.56 0,5.119 0,7.68 0.397,1.356 -0.676,1.243 -0.48,2.399 0,0.96 0,1.92 0,2.88 -1.041,0.081 -0.217,-1.702 -0.48,-2.4 -0.396,-1.356 0.677,-1.243 0.48,-2.399 0.314,-2.886 -0.632,-7.031 0.48,-9.119 z"
   id="path78"
   inkscape:connector-curvature="0"
   style="fill:#040b12;fill-rule:evenodd" />
			<path
   clip-rule="evenodd"
   d="m 132.144,36.574 c 15.053,-13.584 33.78,-23.495 56.155,-29.758 1.351,1.049 1.578,3.222 2.4,4.8 17.759,-2.243 47.465,-2.306 66.714,0 2.933,-0.107 1.371,-4.709 4.319,-4.8 27.806,8.992 50.469,23.126 67.675,42.717 4.024,5.254 8.011,10.548 11.52,16.318 1.085,3.555 4.057,5.223 4.319,9.6 2.318,2.161 2.777,6.182 4.319,9.119 4.802,15.51 6.46,24.183 6.72,42.716 -0.936,14.73 -2.182,22.276 -5.76,35.037 -3.431,11.768 -8.665,21.732 -15.839,29.758 -1.6,0 -3.199,0 -4.799,0 -5.132,7.507 -8.182,17.096 -12.959,24.958 -2.323,-1.037 -6.499,-0.221 -9.6,-0.479 -1.628,1.092 -1.245,4.194 -2.399,5.759 -6.523,3.556 -12.13,8.029 -18.719,11.519 0,2.08 0,4.16 0,6.239 0,2.88 0,5.76 0,8.64 0.141,8.178 0.758,15.881 0.479,24.478 0,2.72 0,5.439 0,8.159 0,2.561 0,5.12 0,7.68 1.459,2.381 5.273,2.407 7.68,3.84 3.018,0.822 5.388,2.292 8.64,2.88 5.19,2.329 10.616,4.423 16.318,6.239 1.095,-0.665 0.179,-3.341 0.48,-4.8 -0.121,-2.2 2.171,-1.987 1.919,-4.319 -0.277,-9.322 0.582,-19.78 -0.479,-28.317 0.677,-1.563 1.094,-3.386 1.439,-5.28 1.587,-1.133 1.491,-3.948 4.32,-3.839 -0.4,-5.04 2.409,-6.87 5.279,-8.64 1.6,0 3.199,0 4.8,0 0.379,1.061 1.679,1.201 2.399,1.92 -0.074,1.193 0.754,1.485 0.96,2.399 0.348,1.093 0.428,2.452 0.96,3.36 -0.462,1.741 2.156,0.402 1.92,1.92 0.988,0.131 0.452,1.787 1.439,1.919 -0.38,1.66 0.534,2.026 0.96,2.88 0,10.239 0,20.479 0,30.718 -0.314,2.714 2.157,2.643 2.4,4.8 0,11.039 0,22.078 0,33.117 -0.806,2.715 -3.184,3.856 -3.84,6.72 0.577,5.981 0.524,12.594 0.479,19.198 0,5.6 0,11.199 0,16.799 -0.2,5.238 0.475,11.353 -0.479,15.838 0.161,12.179 -0.845,22.683 -1.92,32.638 -0.81,7.497 -1.865,14.744 -4.8,21.118 -2.72,0 -5.439,0 -8.159,0 -2.827,-3.699 -3.477,-7.723 -4.319,-11.519 -0.841,-3.787 -1.115,-7.909 -1.92,-12.959 -1.305,-8.121 -1.146,-17.54 -2.4,-27.358 0.919,-3.879 -0.44,-7.698 0,-12.479 0,-1.6 0,-3.2 0,-4.8 -0.255,-7.264 -0.704,-14.335 -0.479,-22.078 -1.652,-3.627 -5.649,-4.91 -8.159,-7.68 -2.985,-2.134 -5.654,-4.585 -8.64,-6.719 -5.271,-4.969 -11.725,-8.754 -16.799,-13.919 -5.689,-1.351 -10.308,-3.771 -15.838,-5.28 -4.811,-2.069 -10.558,-3.201 -14.879,-5.759 -1.13,-1.404 -1.597,-2.731 -0.96,-4.8 -6.258,-2.382 -12.529,-4.75 -18.719,-7.199 -1.354,2.165 -1.726,5.313 -2.88,7.679 -5.919,0 -11.839,0 -17.758,0 -1.303,-2.056 -1.879,-4.84 -2.88,-7.199 -6.164,1.836 -11.121,4.878 -17.278,6.72 -1.043,1.837 -1.381,4.379 -2.88,5.76 -9.699,3.1 -19.198,6.399 -28.798,9.599 -6.382,4.337 -12.015,9.423 -17.758,14.399 -6.242,4.477 -11.88,9.558 -17.759,14.398 -0.107,4.853 0.336,10.255 -0.479,14.398 -0.376,2.136 0.639,2.881 0.479,4.8 -0.234,4.51 -1.271,9.878 -0.479,13.919 -1.428,11.16 -1.101,21.974 -2.4,30.718 -1.289,10.828 -1.501,17.394 -5.28,26.397 -2.02,1.02 -5.847,0.233 -8.639,0.48 -0.16,-10e-4 -0.32,0 -0.48,0 -3.6,-8.029 -3.843,-16.756 -5.28,-27.838 -0.765,-8.94 -0.878,-21.538 -1.919,-31.678 -0.336,-2.096 0.816,-2.703 0.48,-4.8 -1.029,-13.05 -0.226,-27.932 -0.48,-41.756 0.166,-2.086 -1.161,-2.679 -1.44,-4.32 -0.32,-11.839 0.639,-24.957 -0.48,-35.997 0.378,-1.061 1.679,-1.201 2.4,-1.92 1.742,-1.687 0.934,-4.771 0.959,-7.199 0.079,-7.502 -0.059,-16.549 0,-24.478 0,-0.32 0,-0.641 0,-0.96 0.978,-1.422 0.748,-4.053 2.88,-4.319 -0.062,-4.589 2.078,-7.337 4.8,-9.6 2.403,-0.411 3.356,-0.411 5.759,0 2.482,1.523 5.262,5.289 4.32,8.64 0.979,1.741 3.369,2.07 3.84,4.319 0.045,9.367 -0.033,22.653 0,33.597 -0.469,2.069 1.803,1.397 1.919,2.88 0,1.92 0,3.84 0,5.76 0.417,0.539 3.109,-0.703 3.84,-1.439 1.881,-0.039 2.994,-0.847 4.32,-1.44 3.052,-0.787 5.521,-2.158 8.639,-2.88 5.415,-2.264 10.873,-4.486 16.799,-6.239 -0.331,-5.61 0.811,-9.748 0.48,-15.358 0,-2.72 0,-5.439 0,-8.159 -0.315,-8.955 0.43,-16.85 0.479,-25.438 -0.415,-2.305 0.96,-6.399 -0.959,-7.199 -6.283,-3.636 -11.911,-7.927 -18.239,-11.519 -1.034,-1.526 -0.757,-4.363 -1.92,-5.759 -3.205,0.315 -7.673,-0.634 -10.079,0.479 -4.787,-7.692 -8.625,-16.332 -12.479,-24.958 -2.088,0.008 -4.318,0.159 -5.759,-0.48 -11.294,-17.548 -20.012,-37.968 -21.118,-62.395 -0.539,-3.7 1.014,-6.91 0,-9.599 1.057,-3.913 0.987,-8.071 1.439,-11.519 0.349,-2.547 1.678,-5.853 1.44,-8.639 1.161,-1.708 0.917,-3.861 1.44,-5.76 0.07,-0.254 0.905,-0.779 0.96,-0.96 0.133,-0.44 -0.124,-0.996 0,-1.44 1.012,-3.634 3.102,-8.61 4.32,-12.959 1.586,-0.813 1.24,-3.56 2.4,-4.799 0.976,-1.264 1.649,-2.83 2.399,-4.32 1.069,-3.571 3.461,-5.818 4.8,-9.119 3.845,-5.274 7.593,-10.646 11.999,-15.359 2.922,-2.521 5.642,-5.241 8.162,-8.161 z M 187.819,8.736 c -0.197,-0.818 -0.619,0.101 -1.44,0 -13.95,4.129 -26.363,9.794 -37.437,16.799 -11.163,6.916 -20.445,15.712 -28.798,25.438 -7.738,10.34 -14.193,21.963 -19.198,35.037 -4.146,13.933 -7.473,28.684 -6.72,47.516 2.392,23.526 10.614,41.222 20.639,57.115 1.903,0.177 4.6,-0.44 5.759,0.48 3.427,8.572 8.354,15.644 11.519,24.478 3.84,0 7.68,0 11.519,0 0.195,2.205 1.143,3.656 1.44,5.759 3.821,1.938 7.104,4.416 10.559,6.719 1.951,0.929 3.487,2.272 5.28,3.36 1.613,2.055 4.077,0.991 6.239,0 0.524,-0.712 -0.758,-3.7 -1.44,-4.799 -0.03,-2.37 -1.409,-3.391 -1.44,-5.76 -1.417,-3.382 -2.345,-7.253 -3.359,-11.039 -0.729,-20.243 -0.504,-41.262 0.96,-60.955 1.459,-19.639 3.935,-38.298 10.559,-52.795 2.272,-3.007 4.937,-5.623 8.159,-7.679 2.263,-0.271 3.637,-0.691 5.759,0 0.32,-13.279 -0.639,-27.837 0.48,-40.317 25.119,0.319 51.514,-0.638 75.833,0.48 0,13.279 0,26.558 0,39.837 0.944,0.257 5.385,-0.34 7.2,0.479 7.477,4.202 9.348,14.01 11.999,23.038 1.979,9.699 3.896,19.462 4.799,30.238 2.516,20.639 2.817,44.556 1.92,67.194 -1.279,3.68 -1.874,8.045 -3.359,11.519 -0.097,2.463 -1.269,3.851 -1.439,6.24 -0.198,1.445 -2.868,4.615 0,4.799 1.557,2.223 3.394,-0.666 5.279,-0.96 1.085,-1.635 3.332,-2.107 4.8,-3.359 3.331,-2.108 6.434,-4.446 10.079,-6.24 0.587,-1.973 0.814,-4.305 1.92,-5.759 3.52,0 7.039,0 10.559,0 3.718,-8.762 8.551,-16.407 12.479,-24.958 1.76,0 3.52,0 5.279,0 5.658,-6.661 10.284,-14.354 13.438,-23.518 3.19,-9.129 5.207,-19.431 6.72,-30.238 2.242,-24.904 -2.941,-46.258 -10.56,-62.875 -16.827,-32.608 -44.936,-53.936 -82.553,-65.755 -1.123,1.437 -0.644,4.477 -2.88,4.8 -21.106,-2.821 -47.396,-2.356 -68.634,0 -0.708,-1.368 -0.981,-3.176 -1.918,-4.319 z m 0,42.237 c 0,54.555 0,109.111 0,163.667 -0.62,3.762 4.761,3.738 3.36,6.719 -1.997,-1.522 -3.655,-3.384 -4.8,-5.759 0,-39.517 0,-79.034 0,-118.55 0,-1.28 0,-2.56 0,-3.84 -0.349,-1.09 0.865,-3.745 -0.959,-3.36 -4.938,-1.413 -8.617,2.579 -10.559,5.76 -2.657,3.263 -4.146,7.693 -5.28,12.479 -2.872,8.808 -4.142,19.216 -5.28,29.757 -2.239,21.279 -2.601,44.436 -2.399,68.154 0.403,1.196 0.628,2.572 0.48,4.32 2.083,7.355 4.282,14.596 6.719,21.598 -1.354,1.365 -4.833,0.607 -4.8,3.36 0.197,28.995 -0.951,56.644 -0.96,85.433 7.721,-2.466 15.926,-4.727 23.038,-7.199 2.334,-0.812 4.78,-1.887 6.72,-3.36 0.541,-20.418 1.516,-45.323 -0.96,-64.314 1.425,-1.774 2.291,-4.108 3.84,-5.76 1.378,-1.821 1.847,-4.552 4.319,-5.279 2.56,0 5.12,0 7.68,0 3.339,0.34 3.765,3.594 7.199,3.84 6.56,0 13.119,0 19.678,0 3.095,-0.745 3.452,-4.228 7.2,-4.32 2.56,0 5.119,0 7.68,0 2.777,3.622 5.237,7.561 7.679,11.519 -1.218,2.622 -0.781,6.898 -1.439,10.079 0.313,17.925 -0.632,37.108 0.479,54.235 3.894,2.826 9.869,3.57 14.399,5.76 5.27,1.61 10.129,3.63 15.358,5.279 -0.616,-28.661 -0.585,-57.97 -1.439,-86.393 -0.189,-2.211 -3.651,-1.149 -3.84,-3.36 2.267,-7.172 4.337,-14.541 6.239,-22.078 1.159,-23.335 0.451,-48.261 -1.92,-69.594 -1.525,-10.634 -2.774,-21.544 -5.76,-30.717 -1.046,-5.033 -2.498,-9.661 -4.8,-13.439 -2.023,-3.72 -5.888,-7.124 -11.519,-5.76 -1.119,41.117 -0.16,84.313 -0.48,126.229 -0.526,1.393 -1.533,2.306 -2.399,3.36 -0.775,0.832 -1.32,3.338 -2.88,1.92 1.003,-2.517 3.735,-3.304 3.84,-6.719 0,-55.036 0,-110.071 0,-165.106 -24.318,0 -48.636,0 -72.954,0 -0.559,0.08 -0.521,0.758 -0.48,1.439 z m 67.195,215.982 c 0.099,-8.415 -0.867,-15.333 0.96,-21.118 -1.434,-1.606 -2.56,-3.521 -3.36,-5.76 -2.113,-0.926 -2.04,-4.039 -4.319,-4.799 -2.399,0 -4.799,0 -7.199,0 -1.734,1.786 -3.333,3.706 -5.76,4.799 -7.039,0 -14.079,0 -21.118,0 -2.227,-0.973 -3.729,-2.671 -5.759,-3.839 -1.774,-0.798 -6.866,-0.798 -8.64,0 -1.619,3.821 -4.475,6.404 -6.239,10.079 0.52,3.46 0.966,5.552 0.96,10.56 0.319,6.721 -0.638,14.717 0.48,20.639 2.619,-1.061 5.12,-2.239 8.159,-2.88 1.057,-0.703 2.062,-1.459 3.84,-1.44 1.148,-0.771 2.26,-1.579 4.319,-1.439 2.544,-6.271 10.376,-10.682 18.719,-8.159 1.409,1.15 2.95,2.169 4.319,3.359 1.341,1.379 2.065,3.374 3.36,4.8 5.713,1.967 11.403,3.956 16.798,6.239 1.114,-2.727 0.163,-7.517 0.48,-11.041 z M 115.345,247.757 c -3.921,0.718 -5.555,3.724 -5.76,8.159 4.16,0 8.319,0 12.479,0 -0.229,-4.729 -1.9,-8.019 -6.719,-8.159 z m 218.862,0 c -4.268,0.372 -5.564,3.715 -6.239,7.68 4.003,-0.317 9.274,0.635 12.479,-0.48 -1.093,-3.388 -1.82,-7.141 -6.24,-7.2 z m -226.541,10.079 c -2.917,9.082 -0.792,23.206 -1.44,34.557 0.007,2.407 -2.989,1.811 -2.879,4.32 0,11.199 0,22.397 0,33.597 0.067,2.173 2.135,2.345 1.919,4.8 0.193,18.526 -0.461,37.898 0.48,55.676 0.876,17.842 1.375,36.062 6.24,49.916 2.4,0 4.8,0 7.199,0 4.261,-12.059 5.222,-27.416 6.24,-42.717 1.01,-15.309 1.62,-31.018 1.44,-47.517 2.661,-2.618 5.746,-4.812 8.639,-7.199 1.281,-1.438 3.238,-2.201 4.32,-3.84 1.985,-0.733 2.653,-2.785 4.799,-3.359 2.418,-3.021 6.104,-4.774 8.639,-7.68 1.858,-0.861 2.84,-2.6 4.8,-3.359 0.698,-2.021 3.571,-1.868 3.84,-4.319 -0.339,-10.259 0.8,-19.039 0.48,-29.277 -11.99,3.688 -22.589,8.769 -34.557,12.479 0,-2.24 0,-4.479 0,-6.72 -0.274,-1.485 -2.569,-0.95 -1.92,-3.359 0,-5.729 0,-12.659 0,-19.198 0,-6.547 1.236,-13.639 -2.4,-17.279 -4.681,-1.002 -11.687,-0.606 -15.839,0.478 z m 217.901,0.479 c -1.53,0.55 -1.341,2.818 -2.399,3.84 -1.007,9.553 -0.242,20.876 -0.48,31.197 0.622,2.702 -2.062,2.099 -1.439,4.8 -0.177,1.903 0.439,4.6 -0.48,5.76 -11.518,-3.841 -22.516,-8.202 -33.597,-12.479 -0.128,10.366 0.044,20.434 0.479,30.237 2.31,2.811 5.939,4.3 8.16,7.199 3.578,1.701 5.69,4.868 9.119,6.72 2.309,2.811 5.938,4.3 8.159,7.199 1.837,0.723 3.132,1.987 4.319,3.359 1.648,1.072 3.57,1.869 4.319,3.84 -0.308,24.498 0.483,49.91 3.36,70.554 0.997,7.154 1.488,14.385 4.8,20.159 2.239,0 4.479,0 6.719,0 5.606,-13.273 5.457,-32.301 6.72,-49.916 0.515,-19.052 0.229,-36.496 0,-55.676 0.668,-2.532 3.128,-3.271 3.359,-6.239 0,-10.399 0,-20.799 0,-31.197 0.144,-2.544 -2.501,-2.299 -1.92,-5.28 -0.755,-11.884 1.969,-27.246 -2.399,-35.517 -5.279,0 -10.56,0 -15.839,0 -0.603,0.197 -0.98,0.62 -0.96,1.44 z m -89.272,14.4 c -0.859,-2.66 -2.809,-4.23 -4.319,-6.239 -1.799,-0.761 -3.377,-1.742 -5.28,-2.4 -4.464,-0.464 -6.917,1.083 -9.599,2.4 -1.586,1.933 -3.403,3.636 -4.8,5.759 -5.706,2.454 -11.692,4.627 -17.758,6.72 0,8.959 0,17.919 0,26.878 6.652,-2.307 12.546,-5.372 19.198,-7.68 0.962,2.397 1.57,5.149 2.4,7.68 5.439,0 10.879,0 16.319,0 1.375,-2.465 1.388,-6.291 3.359,-8.159 2.843,1.637 6.258,2.701 9.599,3.84 1.352,0.888 3.161,1.318 4.8,1.919 1.505,0.479 3.579,2.191 4.8,1.44 0,-8.479 0,-16.959 0,-25.438 -6.461,-2.019 -12.187,-4.773 -18.719,-6.72 z"
   id="path80"
   inkscape:connector-curvature="0"
   style="fill:#040b12;fill-rule:evenodd" />
		</g>
	</g>
</g>
</svg>