<?xml version="1.0" encoding="utf-8"?>
<!-- Generator: Adobe Illustrator 14.0.0, SVG Export Plug-In . SVG Version: 6.00 Build 43363)  -->
<!DOCTYPE svg PUBLIC "-//W3C//DTD SVG 1.1//EN" "http://www.w3.org/Graphics/SVG/1.1/DTD/svg11.dtd">
<svg version="1.1" id="Calque_1" xmlns="http://www.w3.org/2000/svg" xmlns:xlink="http://www.w3.org/1999/xlink" x="0px" y="0px"
	 width="449.58px" height="449.58px" viewBox="0 0 449.58 449.58" enable-background="new 0 0 449.58 449.58" xml:space="preserve">
<g id="NgqFPU_1_">
	<g>
		<g>
			<path fill-rule="evenodd" clip-rule="evenodd" fill="#0055A5" d="M189.739,13.056c21.238-2.356,47.528-2.821,68.634,0
				c2.236-0.323,1.757-3.363,2.88-4.8c37.617,11.819,65.726,33.147,82.553,65.755c7.618,16.617,12.802,37.971,10.56,62.875
				c-1.513,10.807-3.529,21.108-6.72,30.238c-3.154,9.165-7.78,16.857-13.438,23.518c-1.76,0-3.52,0-5.279,0
				c-3.929,8.551-8.762,16.196-12.479,24.958c-3.52,0-7.039,0-10.559,0c-1.105,1.455-1.333,3.787-1.92,5.759
				c-3.646,1.794-6.748,4.131-10.079,6.24c-1.468,1.252-3.715,1.725-4.8,3.359c-1.886,0.294-3.723,3.183-5.279,0.96
				c-2.868-0.185-0.198-3.354,0-4.799c0.171-2.389,1.343-3.776,1.439-6.24c1.485-3.474,2.08-7.839,3.359-11.519
				c0.897-22.639,0.596-46.556-1.92-67.194c-0.903-10.775-2.819-20.539-4.799-30.238c-2.651-9.028-4.522-18.836-11.999-23.038
				c-1.815-0.819-6.256-0.222-7.2-0.479c0-13.279,0-26.558,0-39.837c-24.319-1.118-50.714-0.161-75.833-0.48
				c-1.12,12.479-0.161,27.038-0.48,40.317c-2.123-0.691-3.497-0.271-5.759,0c-3.223,2.057-5.887,4.672-8.159,7.679
				c-6.625,14.498-9.1,33.157-10.559,52.795c-1.464,19.693-1.689,40.712-0.96,60.955c1.014,3.786,1.942,7.657,3.359,11.039
				c0.031,2.369,1.41,3.39,1.44,5.76c0.682,1.099,1.964,4.087,1.44,4.799c-2.162,0.991-4.626,2.055-6.239,0
				c-1.792-1.087-3.329-2.431-5.28-3.36c-3.456-2.304-6.738-4.781-10.559-6.719c-0.297-2.103-1.245-3.554-1.44-5.759
				c-3.839,0-7.679,0-11.519,0c-3.166-8.834-8.092-15.906-11.519-24.478c-1.16-0.92-3.856-0.303-5.759-0.48
				c-10.025-15.893-18.247-33.589-20.639-57.115c-0.753-18.832,2.574-33.583,6.72-47.516c5.005-13.074,11.46-24.697,19.198-35.037
				c8.353-9.726,17.635-18.522,28.798-25.438c11.074-7.004,23.487-12.67,37.437-16.799c0.821,0.101,1.243-0.818,1.44,0
				C188.756,9.879,189.029,11.687,189.739,13.056z M183.979,17.376c-10.987,3.432-20.704,8.267-29.758,13.918
				c-2.513,1.569-4.988,3.323-7.199,4.32c-0.152,0.068-0.308,0.841-0.48,0.96c-2.014,1.396-4.009,3.051-5.76,3.84
				c-0.129,0.059-0.34,0.842-0.48,0.96c-1.189,1.006-2.214,1.396-3.359,2.399c-0.506,0.443-0.983,1.009-1.44,1.44
				c-16.882,15.96-29.299,36.99-31.677,67.194c0,5.76,0,11.519,0,17.279c1.923,21.915,8.067,39.608,17.758,53.755
				c0.727,1.193,4.134-0.294,4.8,0.96c3.509,5.703,6.396,13.296,9.599,18.239c1.028,1.586,1.201,3.613,2.88,4.319
				c3.683-1.116,9.437-0.163,13.918-0.48c0-7.999,0-15.999,0-23.998c-2.046-4.993-4.166-9.913-6.239-14.878
				c-0.535-1.225-3.712,0.192-4.32-0.96c-6.653-13.186-12.711-26.966-13.439-46.076c0.915-10.925,2.875-20.804,6.72-28.798
				c1.068-4.851,3.802-8.037,5.279-12.479c2.622-3.297,4.032-7.807,7.2-10.559c1.86-4.059,5.194-6.645,7.679-10.079
				c3.134-2.785,6.059-5.78,9.599-8.159c6.859-5.141,14.732-9.267,24.478-11.519c11.839,0,23.678,0,35.517,0
				c2.485-2.794,3.73-6.83,6.24-9.599c0.297-2.263,2.177-2.942,2.399-5.28c0.948-0.332,1.28-1.28,1.44-2.4
				c0.654-0.086,2.328-2.281,0.48-1.92c-15.359,0-30.717,0-46.076,0c-2.459,0.06-1.457-3.343-4.319-2.879
				C184.806,16.922,184.754,17.511,183.979,17.376z"/>
			<path fill-rule="evenodd" clip-rule="evenodd" fill="#00ADEF" d="M185.419,16.896c2.863-0.463,1.86,2.939,4.319,2.879
				c15.359,0,30.717,0,46.076,0c1.848-0.361,0.174,1.833-0.48,1.92c-0.16,1.12-0.492,2.068-1.44,2.4
				c-0.222,2.337-2.102,3.017-2.399,5.28c-2.51,2.77-3.754,6.805-6.24,9.599c-11.839,0-23.678,0-35.517,0
				c-9.746,2.252-17.619,6.378-24.478,11.519c-3.54,2.379-6.465,5.374-9.599,8.159c-2.485,3.435-5.819,6.02-7.679,10.079
				c-3.167,2.752-4.578,7.262-7.2,10.559c-1.478,4.442-4.211,7.628-5.279,12.479c-3.845,7.994-5.805,17.873-6.72,28.798
				c0.728,19.11,6.786,32.891,13.439,46.076c0.607,1.152,3.785-0.265,4.32,0.96c2.073,4.966,4.193,9.885,6.239,14.878
				c0,8,0,15.999,0,23.998c-4.482,0.317-10.235-0.636-13.918,0.48c-1.679-0.706-1.852-2.733-2.88-4.319
				c-3.203-4.943-6.09-12.536-9.599-18.239c-0.666-1.254-4.073,0.233-4.8-0.96c-9.691-14.147-15.835-31.84-17.758-53.755
				c0-5.76,0-11.519,0-17.279c2.378-30.205,14.795-51.234,31.677-67.194c0.457-0.431,0.934-0.997,1.44-1.44
				c1.145-1.003,2.17-1.393,3.359-2.399c0.14-0.118,0.351-0.901,0.48-0.96c1.75-0.789,3.746-2.444,5.76-3.84
				c0.172-0.119,0.328-0.892,0.48-0.96c2.211-0.997,4.686-2.75,7.199-4.32c9.054-5.652,18.771-10.486,29.758-13.918
				C184.754,17.511,184.806,16.922,185.419,16.896z"/>
			<path fill-rule="evenodd" clip-rule="evenodd" fill="#0055A5" d="M188.299,49.533c24.318,0,48.636,0,72.954,0
				c0,55.035,0,110.071,0,165.106c-0.104,3.416-2.837,4.203-3.84,6.719c1.56,1.418,2.104-1.088,2.88-1.92
				c0.866-1.054,1.873-1.967,2.399-3.36c0.32-41.917-0.639-85.112,0.48-126.229c5.631-1.364,9.495,2.04,11.519,5.76
				c2.302,3.778,3.754,8.406,4.8,13.439c2.985,9.173,4.234,20.083,5.76,30.717c2.371,21.333,3.079,46.259,1.92,69.594
				c-1.902,7.537-3.973,14.906-6.239,22.078c0.188,2.211,3.65,1.149,3.84,3.36c0.854,28.423,0.823,57.731,1.439,86.393
				c-5.229-1.649-10.089-3.669-15.358-5.279c-4.53-2.189-10.506-2.934-14.399-5.76c-1.111-17.127-0.166-36.311-0.479-54.235
				c0.658-3.181,0.222-7.457,1.439-10.079c-2.441-3.958-4.901-7.897-7.679-11.519c-2.561,0-5.12,0-7.68,0
				c-3.748,0.092-4.104,3.575-7.2,4.32c-6.559,0-13.119,0-19.678,0c-3.434-0.246-3.86-3.5-7.199-3.84c-2.56,0-5.12,0-7.68,0
				c-2.472,0.728-2.941,3.458-4.319,5.279c-1.549,1.651-2.415,3.985-3.84,5.76c2.476,18.991,1.501,43.896,0.96,64.314
				c-1.94,1.474-4.386,2.548-6.72,3.36c-7.112,2.473-15.317,4.733-23.038,7.199c0.009-28.789,1.157-56.438,0.96-85.433
				c-0.033-2.752,3.445-1.995,4.8-3.36c-2.438-7.002-4.636-14.243-6.719-21.598c0.148-1.748-0.077-3.124-0.48-4.32
				c-0.201-23.719,0.161-46.875,2.399-68.154c1.138-10.542,2.408-20.95,5.28-29.757c1.134-4.786,2.623-9.216,5.28-12.479
				c1.942-3.181,5.621-7.172,10.559-5.76c1.824-0.385,0.61,2.27,0.959,3.36c0,1.28,0,2.56,0,3.84c0,39.517,0,79.033,0,118.55
				c1.145,2.375,2.803,4.237,4.8,5.759c1.401-2.981-3.979-2.958-3.36-6.719c0-54.556,0-109.111,0-163.667
				C187.778,50.292,187.74,49.614,188.299,49.533z M192.619,56.732c0,52.156,0,104.312,0,156.467c1.399,1.801,2.999,3.4,4.8,4.799
				c1.465,1.734,5.728,0.671,8.639,0.96c-0.178-17.42,0.441-35.638-0.48-52.315c-2.032-15.567-3.589-31.608-4.8-47.996
				c0.744-1.176,0.716-3.124,0.96-4.8c1.548-2.611,3.138-5.182,4.8-7.679c2.277-1.882,4.642-3.678,7.199-5.28
				c1.509-0.57,2.54-1.62,4.32-1.919c0.546-1.534,3.705-0.456,3.839-2.4c0-13.759,0-27.518,0-41.277c-9.599,0-19.198,0-28.797,0
				C192.54,55.374,192.578,56.051,192.619,56.732z M267.492,100.889c0,41.277,0,82.553,0,123.83
				c-0.071,3.448-3.076,3.963-2.88,7.679c0,23.198,0,46.396,0,69.594c0,1.6,0,3.2,0,4.8c0.452,1.308,2.422,1.099,3.84,1.439
				c0.845,0.69,1.095,0.44,0.96-0.96c0-1.119,0-2.239,0-3.359c-0.319-67.833,0.64-136.949-0.479-203.983
				c-0.614-0.026-0.665-0.615-1.44-0.479C267.492,99.929,267.492,100.409,267.492,100.889z M176.3,101.369
				c-6.395,12.964-7.761,30.956-9.599,48.476c-0.969,18.389-1.643,37.074-1.44,56.635c1.504,6.976,3.792,13.167,5.28,20.159
				c-0.596,28.361-3.199,57.275-2.88,84.953c2.166-1.194,4.578-2.142,7.2-2.88c0.202-34.525,1.439-69.704,1.439-104.632
				c0-35.074,1.225-70.114,0.96-104.151C176.585,100.054,176.713,100.981,176.3,101.369z M235.335,223.759
				c-0.989-3.171-1.25-7.069-2.879-9.599c-0.877-1.203-0.999-3.161-2.4-3.84c-0.009-2.071-2.391-1.769-2.4-3.84
				c0-2.56,0-5.12,0-7.679c0.975-2.385,4.136-2.584,4.8-5.279c0.182-9.417,0.97-18.228,1.439-27.358
				c1.116-1.444,2.134-2.986,3.36-4.32c1.965-12.913,4.369-25.389,6.72-37.917c-1.123-5.757-3.452-10.307-6.72-13.918
				c-2.715-1.256-5.279-3.531-7.679-3.84c-12.638-1.625-23.441,4.874-23.998,16.798c2.249,12.95,4.853,25.545,6.719,38.877
				c0.88,2.32,3.301,3.099,3.84,5.76c-0.179,9.297,0.854,17.384,0.96,26.397c1.145,2.535,4.505,2.854,5.279,5.76
				c0,2.4,0,4.8,0,7.199c-6.184,4.855-8.488,13.59-8.159,24.958c1.76,0,3.52,0,5.28,0c1.549,0.43,0.674-1.565,1.44-1.92
				c0.915-0.205,0.868-1.371,2.399-0.96c1.44,0,2.88,0,4.32,0c1.653,0.267,0.674,3.166,2.4,3.36c1.76,0,3.52,0,5.279,0
				C235.335,229.518,235.335,226.639,235.335,223.759z"/>
			<path fill-rule="evenodd" clip-rule="evenodd" fill="#00ADEF" d="M193.099,55.292c9.599,0,19.198,0,28.797,0
				c0,13.759,0,27.518,0,41.277c-0.135,1.944-3.293,0.866-3.839,2.4c-1.78,0.299-2.811,1.349-4.32,1.919
				c-2.558,1.602-4.922,3.397-7.199,5.28c-1.662,2.498-3.251,5.068-4.8,7.679c-0.244,1.676-0.216,3.624-0.96,4.8
				c1.21,16.388,2.768,32.429,4.8,47.996c0.921,16.678,0.302,34.896,0.48,52.315c-2.911-0.289-7.174,0.774-8.639-0.96
				c-1.801-1.399-3.401-2.999-4.8-4.799c0-52.156,0-104.311,0-156.467C192.578,56.051,192.54,55.374,193.099,55.292z"/>
			<path fill-rule="evenodd" clip-rule="evenodd" fill="#00ADEF" d="M267.492,99.449c0.775-0.135,0.826,0.454,1.44,0.479
				c1.119,67.035,0.16,136.15,0.479,203.983c0,1.12,0,2.24,0,3.359c0.135,1.4-0.115,1.65-0.96,0.96
				c-1.418-0.341-3.388-0.132-3.84-1.439c0-1.6,0-3.2,0-4.8c0-23.198,0-46.396,0-69.594c-0.196-3.716,2.809-4.231,2.88-7.679
				c0-41.277,0-82.553,0-123.83C267.492,100.409,267.492,99.929,267.492,99.449z"/>
			<path fill-rule="evenodd" clip-rule="evenodd" fill="#00ADEF" d="M177.26,99.929c0.265,34.038-0.96,69.078-0.96,104.151
				c0,34.928-1.238,70.106-1.439,104.632c-2.622,0.738-5.034,1.686-7.2,2.88c-0.319-27.678,2.284-56.592,2.88-84.953
				c-1.488-6.992-3.776-13.183-5.28-20.159c-0.203-19.561,0.471-38.246,1.44-56.635c1.838-17.52,3.205-35.512,9.599-48.476
				C176.713,100.981,176.585,100.054,177.26,99.929z"/>
			<path fill-rule="evenodd" clip-rule="evenodd" fill="#040B12" d="M235.335,232.398c-1.76,0-3.52,0-5.279,0
				c-1.726-0.194-0.747-3.093-2.4-3.36c-1.44,0-2.88,0-4.32,0c-1.531-0.411-1.484,0.755-2.399,0.96
				c-0.766,0.354,0.109,2.35-1.44,1.92c-1.76,0-3.52,0-5.28,0c-0.329-11.368,1.976-20.103,8.159-24.958c0-2.399,0-4.799,0-7.199
				c-0.774-2.906-4.134-3.225-5.279-5.76c-0.106-9.013-1.139-17.1-0.96-26.397c-0.539-2.661-2.96-3.439-3.84-5.76
				c-1.866-13.332-4.471-25.927-6.719-38.877c0.557-11.924,11.36-18.424,23.998-16.798c2.4,0.309,4.964,2.583,7.679,3.84
				c3.268,3.612,5.597,8.162,6.72,13.918c-2.351,12.528-4.754,25.004-6.72,37.917c-1.226,1.334-2.244,2.875-3.36,4.32
				c-0.469,9.13-1.258,17.94-1.439,27.358c-0.664,2.695-3.825,2.895-4.8,5.279c0,2.56,0,5.12,0,7.679
				c0.009,2.071,2.391,1.769,2.4,3.84c1.401,0.679,1.523,2.637,2.4,3.84c1.629,2.53,1.891,6.428,2.879,9.599
				C235.335,226.639,235.335,229.518,235.335,232.398z M230.536,212.72c-1.201-2.159-3.343-3.377-4.32-5.76c0-2.88,0-5.759,0-8.639
				c1.013-2.347,4.212-2.508,4.8-5.28c0.422-9.017,1.173-17.705,1.44-26.877c0.745-2.135,2.734-3.026,3.359-5.28
				c2.4-12.158,4.461-24.657,6.72-36.957c-0.847-5.552-3.213-9.586-6.24-12.958c-11.126-8.456-29.45-1.817-29.277,11.999
				c2.122,13.077,4.674,25.724,6.719,38.877c0.932,1.789,2.718,2.722,3.36,4.8c0.787,8.652,0.653,18.226,1.44,26.878
				c1.14,2.539,4.407,2.952,5.279,5.759c0,2.72,0,5.439,0,8.159c-2.159,1.521-3.521,3.838-5.279,5.76
				c-0.8,2.72-1.858,5.182-2.4,8.159c0.159,1.919-0.855,2.664-0.48,4.8c0,0.96,0,1.919,0,2.879c0.109,0.851-0.484,2.404,0.96,1.92
				c2.173,0.414,2.99-0.53,3.36-1.92c1.057-0.703,2.061-1.458,3.839-1.439c0.8,0,1.6,0,2.4,0c1.796,0.124,2.728,1.112,3.84,1.919
				c-0.305,2.225,2.624,1.216,4.319,1.44C234.272,223.702,232.848,217.767,230.536,212.72z"/>
			<path fill-rule="evenodd" clip-rule="evenodd" fill="#0055A5" d="M234.375,230.958c-1.695-0.224-4.624,0.785-4.319-1.44
				c-1.112-0.807-2.044-1.795-3.84-1.919c-0.8,0-1.6,0-2.4,0c-1.778-0.019-2.782,0.737-3.839,1.439
				c-0.37,1.39-1.187,2.333-3.36,1.92c-1.444,0.484-0.851-1.069-0.96-1.92c0-0.96,0-1.919,0-2.879
				c-0.375-2.136,0.639-2.881,0.48-4.8c0.542-2.978,1.6-5.439,2.4-8.159c1.758-1.921,3.121-4.239,5.279-5.76c0-2.72,0-5.439,0-8.159
				c-0.872-2.808-4.139-3.22-5.279-5.759c-0.787-8.652-0.653-18.226-1.44-26.878c-0.642-2.078-2.428-3.011-3.36-4.8
				c-2.045-13.153-4.597-25.8-6.719-38.877c-0.173-13.816,18.151-20.454,29.277-11.999c3.027,3.373,5.393,7.406,6.24,12.958
				c-2.259,12.3-4.319,24.799-6.72,36.957c-0.625,2.254-2.615,3.145-3.359,5.28c-0.267,9.172-1.018,17.86-1.44,26.877
				c-0.588,2.772-3.787,2.933-4.8,5.28c0,2.88,0,5.759,0,8.639c0.977,2.383,3.119,3.601,4.32,5.76
				C232.848,217.767,234.272,223.702,234.375,230.958z M209.417,122.487c1.93,12.789,4.983,24.454,6.72,37.437
				c1.123,2.078,2.854,3.546,3.36,6.24c-0.331,6.25,0.811,11.028,0.48,17.278c0.852,0.909,0.35,3.17,0.48,4.8c0,0.96,0,1.92,0,2.88
				c0.109,0.85-0.484,2.403,0.959,1.919c1.613,0.493,0.748-1.493,0.96-2.399c0-1.12,0-2.24,0-3.36c0-16.319,0-32.637,0-48.956
				c-6.183-2.136-10.635-6.003-10.079-14.878c0.975-2.385,2.138-4.583,3.84-6.24c1.356-1.204,3.042-2.077,4.8-2.88
				c2.434-0.126,4.092-1.027,3.359-4.319c-0.64,0-1.28,0-1.92,0C215.53,111.641,210.606,115.196,209.417,122.487z M216.137,122.967
				c-1.948,7.422,2.671,12.343,9.599,12.479c4.893-1.187,8.096-4.063,8.639-9.6c-0.347-2.853-1.727-4.673-2.879-6.719
				c-2.186-1.023-5.434-3.515-8.64-1.92C219.301,117.812,217.215,119.886,216.137,122.967z M218.057,228.558
				c1.49-1.549,3.38-2.699,5.279-3.839c-0.316-4.003,0.636-9.275-0.48-12.479C220.123,216.229,217.59,222.97,218.057,228.558z"/>
			<path fill-rule="evenodd" clip-rule="evenodd" fill="#00ADEF" d="M222.376,110.008c0.64,0,1.28,0,1.92,0
				c0.732,3.292-0.926,4.193-3.359,4.319c-1.757,0.803-3.443,1.676-4.8,2.88c-1.702,1.657-2.865,3.854-3.84,6.24
				c-0.556,8.875,3.896,12.743,10.079,14.878c0,16.319,0,32.637,0,48.956c0,1.12,0,2.24,0,3.36c-0.212,0.907,0.653,2.893-0.96,2.399
				c-1.443,0.484-0.85-1.069-0.959-1.919c0-0.96,0-1.92,0-2.88c-0.13-1.629,0.372-3.891-0.48-4.8
				c0.331-6.25-0.811-11.028-0.48-17.278c-0.506-2.694-2.237-4.162-3.36-6.24c-1.736-12.982-4.79-24.647-6.72-37.437
				C210.606,115.196,215.53,111.641,222.376,110.008z"/>
			<path fill-rule="evenodd" clip-rule="evenodd" fill="#040B12" d="M222.856,117.208c3.206-1.595,6.454,0.897,8.64,1.92
				c1.153,2.046,2.533,3.867,2.879,6.719c-0.543,5.536-3.746,8.413-8.639,9.6c-6.928-0.137-11.547-5.058-9.599-12.479
				C217.215,119.886,219.301,117.812,222.856,117.208z M223.816,134.006c5.654,0.054,8.405-2.794,9.12-7.68
				c0.246-9.587-12.858-10.763-15.839-2.879c0,1.76,0,3.52,0,5.279C218.637,131.187,220.393,133.43,223.816,134.006z"/>
			<path fill-rule="evenodd" clip-rule="evenodd" fill="#0055A5" d="M217.097,128.727c0-1.76,0-3.52,0-5.279
				c2.98-7.883,16.084-6.708,15.839,2.879c-0.715,4.885-3.465,7.734-9.12,7.68C220.393,133.43,218.637,131.187,217.097,128.727z
				 M218.537,125.367c0.338,3.342,2,5.359,5.279,5.76c0-3.36,0-6.72,0-10.079C220.817,121.248,219.14,122.771,218.537,125.367z"/>
			<path fill-rule="evenodd" clip-rule="evenodd" fill="#00ADEF" d="M223.816,121.047c0,3.359,0,6.719,0,10.079
				c-3.279-0.4-4.941-2.418-5.279-5.76C219.14,122.771,220.817,121.248,223.816,121.047z"/>
			<path fill-rule="evenodd" clip-rule="evenodd" fill="#00ADEF" d="M222.856,212.24c1.116,3.204,0.164,8.476,0.48,12.479
				c-1.899,1.141-3.789,2.291-5.279,3.839C217.59,222.97,220.123,216.229,222.856,212.24z"/>
			<path fill-rule="evenodd" clip-rule="evenodd" fill="#0055A5" d="M199.818,236.238c1.774-0.798,6.866-0.798,8.64,0
				C205.578,236.238,202.698,236.238,199.818,236.238z"/>
			<path fill-rule="evenodd" clip-rule="evenodd" fill="#0055A5" d="M286.211,240.077c0.798,1.773,0.798,6.866,0,8.64
				C286.211,245.837,286.211,242.957,286.211,240.077z"/>
			<path fill-rule="evenodd" clip-rule="evenodd" fill="#0055A5" d="M123.504,257.355c3.636,3.641,2.4,10.732,2.4,17.279
				c0,6.539,0,13.469,0,19.198c-0.649,2.409,1.646,1.874,1.92,3.359c0,2.24,0,4.479,0,6.72c11.968-3.71,22.567-8.79,34.557-12.479
				c0.32,10.238-0.819,19.019-0.48,29.277c-0.269,2.451-3.142,2.298-3.84,4.319c-1.96,0.76-2.941,2.498-4.8,3.359
				c-2.535,2.905-6.221,4.658-8.639,7.68c-2.146,0.574-2.814,2.626-4.799,3.359c-1.082,1.639-3.039,2.401-4.32,3.84
				c-2.893,2.387-5.979,4.581-8.639,7.199c0.18,16.499-0.43,32.208-1.44,47.517c-1.018,15.301-1.979,30.658-6.24,42.717
				c-2.399,0-4.799,0-7.199,0c-4.865-13.854-5.363-32.074-6.24-49.916c-0.941-17.777-0.287-37.149-0.48-55.676
				c0.216-2.455-1.852-2.627-1.919-4.8c0-11.199,0-22.397,0-33.597c-0.11-2.51,2.887-1.913,2.879-4.32
				c0.648-11.351-1.477-25.475,1.44-34.557C111.818,256.752,118.824,256.356,123.504,257.355z M112.945,261.195
				c-0.116-1.237-0.826,0.659-1.92,0c-2.763,0.117-1.757,4.003-1.92,6.72c0,8.64,0,17.278,0,25.918
				c-0.036,3.004-3.286,2.794-2.88,6.239c0,9.6,0,19.198,0,28.798c-0.327,2.887,1.971,3.148,1.44,6.239
				c0.286,16.673-0.593,34.511,0.48,50.396c0.435,16.524,1.055,32.862,4.8,46.076C112.945,374.785,112.945,317.991,112.945,261.195z
				"/>
			<path fill-rule="evenodd" clip-rule="evenodd" fill="#0055A5" d="M194.539,256.876c1.118,5.921,0.161,13.918,0.48,20.639
				C193.9,271.593,194.857,263.597,194.539,256.876z"/>
			<path fill-rule="evenodd" clip-rule="evenodd" fill="#0055A5" d="M326.527,256.876c5.279,0,10.56,0,15.839,0
				c4.368,8.271,1.645,23.633,2.399,35.517c-0.581,2.981,2.063,2.736,1.92,5.28c0,10.398,0,20.798,0,31.197
				c-0.231,2.968-2.691,3.707-3.359,6.239c0.229,19.18,0.515,36.624,0,55.676c-1.263,17.615-1.113,36.643-6.72,49.916
				c-2.239,0-4.479,0-6.719,0c-3.312-5.774-3.803-13.005-4.8-20.159c-2.877-20.644-3.668-46.056-3.36-70.554
				c-0.749-1.971-2.671-2.768-4.319-3.84c-1.188-1.372-2.482-2.637-4.319-3.359c-2.221-2.899-5.851-4.389-8.159-7.199
				c-3.429-1.852-5.541-5.019-9.119-6.72c-2.221-2.899-5.851-4.389-8.16-7.199c-0.436-9.804-0.607-19.871-0.479-30.237
				c11.081,4.276,22.079,8.638,33.597,12.479c0.92-1.16,0.304-3.856,0.48-5.76c-0.622-2.701,2.062-2.098,1.439-4.8
				c0.238-10.321-0.526-21.645,0.48-31.197c1.059-1.021,0.869-3.29,2.399-3.84C325.547,257.495,325.924,257.072,326.527,256.876z
				 M328.928,263.115c-0.729,1.511-1.601,2.88-1.92,4.8c0.216,9.383,0.653,18.545,0.96,27.838c0.098,3.298-3.812,2.589-3.36,6.239
				c0,12.959,0,25.918,0,38.877c0.106,2.134,3.355,1.125,2.88,3.84c-1.141,22.493-1.508,47.691,0,70.074
				c0.622,3.377,1.166,6.833,1.44,10.559c1.66,2.5,0.941,7.378,4.799,7.68c0-55.516,0-111.031,0-166.546c0-0.96,0-1.92,0-2.88
				c-0.109-0.851,0.484-2.404-0.96-1.92c-0.96,0-1.919,0-2.879,0C329.213,261.801,329.34,262.729,328.928,263.115z M293.891,317.351
				c7.848,4.632,14.726,10.232,22.558,14.879c0-7.52,0-15.038,0-22.558c-7.772-3.267-15.13-6.949-22.558-10.56
				C293.891,305.192,293.891,311.271,293.891,317.351z"/>
			<path fill-rule="evenodd" clip-rule="evenodd" fill="#00ADEF" d="M112.945,431.581c-3.745-13.214-4.365-29.552-4.8-46.076
				c-1.073-15.885-0.194-33.723-0.48-50.396c0.531-3.091-1.767-3.353-1.44-6.239c0-9.6,0-19.198,0-28.798
				c-0.406-3.445,2.844-3.235,2.88-6.239c0-8.64,0-17.278,0-25.918c0.163-2.717-0.843-6.603,1.92-6.72
				c1.094,0.659,1.804-1.237,1.92,0C112.945,317.991,112.945,374.785,112.945,431.581z"/>
			<path fill-rule="evenodd" clip-rule="evenodd" fill="#00ADEF" d="M329.888,261.676c0.96,0,1.919,0,2.879,0
				c1.444-0.484,0.851,1.069,0.96,1.92c0,0.96,0,1.92,0,2.88c0,55.515,0,111.03,0,166.546c-3.857-0.302-3.139-5.18-4.799-7.68
				c-0.274-3.726-0.818-7.182-1.44-10.559c-1.508-22.383-1.141-47.581,0-70.074c0.476-2.715-2.773-1.706-2.88-3.84
				c0-12.959,0-25.918,0-38.877c-0.451-3.65,3.458-2.941,3.36-6.239c-0.307-9.293-0.744-18.455-0.96-27.838
				c0.319-1.92,1.19-3.289,1.92-4.8C329.34,262.729,329.213,261.801,329.888,261.676z"/>
			<path fill-rule="evenodd" clip-rule="evenodd" fill="#0055A5" d="M255.014,279.435c0,8.479,0,16.958,0,25.438
				c-1.221,0.751-3.295-0.962-4.8-1.44c-1.639-0.601-3.448-1.031-4.8-1.919c-3.341-1.139-6.756-2.203-9.599-3.84
				c-1.971,1.868-1.984,5.694-3.359,8.159c-5.44,0-10.879,0-16.319,0c-0.83-2.53-1.438-5.282-2.4-7.68
				c-6.652,2.308-12.546,5.373-19.198,7.68c0-8.959,0-17.919,0-26.878c6.066-2.093,12.053-4.266,17.758-6.72
				c1.396-2.123,3.213-3.826,4.8-5.759c2.683-1.317,5.135-2.864,9.599-2.4c1.902,0.658,3.48,1.64,5.28,2.4
				c1.511,2.009,3.46,3.579,4.319,6.239C242.827,274.662,248.553,277.416,255.014,279.435z M214.697,274.635
				c-0.256,6.016,0.484,11.035,0.96,16.318c0.467,2.413,0.98,4.779,1.44,7.199c0.818,2.062,1.016,4.744,4.799,3.84
				c1.119-8.48,0.161-19.038,0.48-28.317c-0.35-1.091,0.865-3.745-0.96-3.36C218.295,270.873,216.193,272.451,214.697,274.635z
				 M213.257,289.033c0-3.04,0-6.079,0-9.119c0-1.439,0-2.88,0-4.319c0.107-0.816-0.541-1.188-0.48,0c0,0.8,0,1.6,0,2.399
				c0.035,6.204-0.287,12.766,0.96,17.759C213.845,293.245,213.729,290.961,213.257,289.033z M235.335,290.953
				c0.197,1.156-0.876,1.043-0.48,2.399c0.263,0.698-0.561,2.481,0.48,2.4c0-0.96,0-1.92,0-2.88
				c-0.196-1.156,0.877-1.043,0.48-2.399c0-2.561,0-5.12,0-7.68c-0.196-1.156,0.877-1.043,0.48-2.399c0-0.96,0-1.92,0-2.88
				c0-0.48,0-0.96,0-1.44c0.002-0.267-0.389-0.545-0.48,0c0,1.92,0,3.84,0,5.76C234.703,283.922,235.649,288.067,235.335,290.953z"
				/>
			<path fill-rule="evenodd" clip-rule="evenodd" fill="#0055A5" d="M162.861,266.476c0,2.72,0,5.439,0,8.159
				C162.063,273.02,162.063,268.091,162.861,266.476z"/>
			<path fill-rule="evenodd" clip-rule="evenodd" fill="#0055A5" d="M255.014,266.955c-0.316,3.523,0.635,8.313-0.48,11.039
				C254.85,274.471,253.899,269.681,255.014,266.955z"/>
			<path fill-rule="evenodd" clip-rule="evenodd" fill="#00ADEF" d="M221.416,270.314c1.825-0.385,0.61,2.27,0.96,3.36
				c-0.319,9.279,0.639,19.837-0.48,28.317c-3.784,0.904-3.981-1.778-4.799-3.84c-0.459-2.42-0.973-4.786-1.44-7.199
				c-0.476-5.283-1.216-10.303-0.96-16.318C216.193,272.451,218.295,270.873,221.416,270.314z"/>
			<path fill-rule="evenodd" clip-rule="evenodd" fill="#0055A5" d="M286.69,273.194c0.798,1.615,0.798,6.544,0,8.159
				C286.69,278.634,286.69,275.914,286.69,273.194z"/>
			<path fill-rule="evenodd" clip-rule="evenodd" fill="#0055A5" d="M128.784,296.232c0.796,0.828,0.796,4.932,0,5.76
				C128.784,300.072,128.784,298.152,128.784,296.232z"/>
			<path fill-rule="evenodd" clip-rule="evenodd" fill="#00ADEF" d="M293.891,299.112c7.428,3.61,14.785,7.293,22.558,10.56
				c0,7.52,0,15.038,0,22.558c-7.832-4.646-14.71-10.247-22.558-14.879C293.891,311.271,293.891,305.192,293.891,299.112z"/>
			<path fill-rule="evenodd" clip-rule="evenodd" fill="#0055A5" d="M344.766,355.748c0.8,4.483,0.8,12.314,0,16.799
				C344.766,366.947,344.766,361.348,344.766,355.748z"/>
			<path fill-rule="evenodd" clip-rule="evenodd" fill="#0055A5" d="M320.768,373.026c0,1.6,0,3.2,0,4.8
				C319.974,377.309,319.974,373.544,320.768,373.026z"/>
			<path fill-rule="evenodd" clip-rule="evenodd" fill="#0055A5" d="M123.984,44.733c2.52-2.92,5.239-5.64,8.159-8.159
				C129.624,39.494,126.904,42.214,123.984,44.733z"/>
			<path fill-rule="evenodd" clip-rule="evenodd" fill="#0055A5" d="M162.381,233.838c1.919,0.8,0.544,4.895,0.959,7.199
				C162.001,239.657,163.69,235.249,162.381,233.838z"/>
			<path fill-rule="evenodd" clip-rule="evenodd" fill="#0055A5" d="M105.266,261.676c-0.059,7.929,0.079,16.976,0,24.478
				c-0.025,2.428,0.782,5.513-0.959,7.199C105.737,283.904,103.833,271.122,105.266,261.676z"/>
			<path fill-rule="evenodd" clip-rule="evenodd" fill="#0055A5" d="M111.505,441.661c2.792-0.247,6.619,0.539,8.639-0.48
				C119.118,442.884,113.271,442.291,111.505,441.661z"/>
			<path fill-rule="evenodd" clip-rule="evenodd" fill="#0055A5" d="M340.446,251.116c-0.206-0.914-1.034-1.206-0.96-2.399
				c1.571,1.309,2.624,3.136,2.88,5.76C341.414,253.669,341.601,251.722,340.446,251.116z"/>
			<path fill-rule="evenodd" clip-rule="evenodd" fill="#040B12" d="M213.737,295.753c-1.247-4.993-0.925-11.555-0.96-17.759
				c0-0.8,0-1.6,0-2.399c-0.061-1.188,0.587-0.816,0.48,0c0,1.439,0,2.88,0,4.319c0,3.04,0,6.079,0,9.119
				C213.729,290.961,213.845,293.245,213.737,295.753z"/>
			<path fill-rule="evenodd" clip-rule="evenodd" fill="#040B12" d="M235.815,281.834c0-1.92,0-3.84,0-5.76
				c0.091-0.545,0.482-0.267,0.48,0c0,0.48,0,0.96,0,1.44c0,0.96,0,1.92,0,2.88c0.397,1.356-0.676,1.243-0.48,2.399
				c0,2.56,0,5.119,0,7.68c0.397,1.356-0.676,1.243-0.48,2.399c0,0.96,0,1.92,0,2.88c-1.041,0.081-0.217-1.702-0.48-2.4
				c-0.396-1.356,0.677-1.243,0.48-2.399C235.649,288.067,234.703,283.922,235.815,281.834z"/>
			<path fill-rule="evenodd" clip-rule="evenodd" fill="#040B12" d="M132.144,36.574c15.053-13.584,33.78-23.495,56.155-29.758
				c1.351,1.049,1.578,3.222,2.4,4.8c17.759-2.243,47.465-2.306,66.714,0c2.933-0.107,1.371-4.709,4.319-4.8
				c27.806,8.992,50.469,23.126,67.675,42.717c4.024,5.254,8.011,10.548,11.52,16.318c1.085,3.555,4.057,5.223,4.319,9.6
				c2.318,2.161,2.777,6.182,4.319,9.119c4.802,15.51,6.46,24.183,6.72,42.716c-0.936,14.73-2.182,22.276-5.76,35.037
				c-3.431,11.768-8.665,21.732-15.839,29.758c-1.6,0-3.199,0-4.799,0c-5.132,7.507-8.182,17.096-12.959,24.958
				c-2.323-1.037-6.499-0.221-9.6-0.479c-1.628,1.092-1.245,4.194-2.399,5.759c-6.523,3.556-12.13,8.029-18.719,11.519
				c0,2.08,0,4.16,0,6.239c0,2.88,0,5.76,0,8.64c0.141,8.178,0.758,15.881,0.479,24.478c0,2.72,0,5.439,0,8.159
				c0,2.561,0,5.12,0,7.68c1.459,2.381,5.273,2.407,7.68,3.84c3.018,0.822,5.388,2.292,8.64,2.88
				c5.19,2.329,10.616,4.423,16.318,6.239c1.095-0.665,0.179-3.341,0.48-4.8c-0.121-2.2,2.171-1.987,1.919-4.319
				c-0.277-9.322,0.582-19.78-0.479-28.317c0.677-1.563,1.094-3.386,1.439-5.28c1.587-1.133,1.491-3.948,4.32-3.839
				c-0.4-5.04,2.409-6.87,5.279-8.64c1.6,0,3.199,0,4.8,0c0.379,1.061,1.679,1.201,2.399,1.92c-0.074,1.193,0.754,1.485,0.96,2.399
				c0.348,1.093,0.428,2.452,0.96,3.36c-0.462,1.741,2.156,0.402,1.92,1.92c0.988,0.131,0.452,1.787,1.439,1.919
				c-0.38,1.66,0.534,2.026,0.96,2.88c0,10.239,0,20.479,0,30.718c-0.314,2.714,2.157,2.643,2.4,4.8c0,11.039,0,22.078,0,33.117
				c-0.806,2.715-3.184,3.856-3.84,6.72c0.577,5.981,0.524,12.594,0.479,19.198c0,5.6,0,11.199,0,16.799
				c-0.2,5.238,0.475,11.353-0.479,15.838c0.161,12.179-0.845,22.683-1.92,32.638c-0.81,7.497-1.865,14.744-4.8,21.118
				c-2.72,0-5.439,0-8.159,0c-2.827-3.699-3.477-7.723-4.319-11.519c-0.841-3.787-1.115-7.909-1.92-12.959
				c-1.305-8.121-1.146-17.54-2.4-27.358c0.919-3.879-0.44-7.698,0-12.479c0-1.6,0-3.2,0-4.8
				c-0.255-7.264-0.704-14.335-0.479-22.078c-1.652-3.627-5.649-4.91-8.159-7.68c-2.985-2.134-5.654-4.585-8.64-6.719
				c-5.271-4.969-11.725-8.754-16.799-13.919c-5.689-1.351-10.308-3.771-15.838-5.28c-4.811-2.069-10.558-3.201-14.879-5.759
				c-1.13-1.404-1.597-2.731-0.96-4.8c-6.258-2.382-12.529-4.75-18.719-7.199c-1.354,2.165-1.726,5.313-2.88,7.679
				c-5.919,0-11.839,0-17.758,0c-1.303-2.056-1.879-4.84-2.88-7.199c-6.164,1.836-11.121,4.878-17.278,6.72
				c-1.043,1.837-1.381,4.379-2.88,5.76c-9.699,3.1-19.198,6.399-28.798,9.599c-6.382,4.337-12.015,9.423-17.758,14.399
				c-6.242,4.477-11.88,9.558-17.759,14.398c-0.107,4.853,0.336,10.255-0.479,14.398c-0.376,2.136,0.639,2.881,0.479,4.8
				c-0.234,4.51-1.271,9.878-0.479,13.919c-1.428,11.16-1.101,21.974-2.4,30.718c-1.289,10.828-1.501,17.394-5.28,26.397
				c-2.02,1.02-5.847,0.233-8.639,0.48c-0.16-0.001-0.32,0-0.48,0c-3.6-8.029-3.843-16.756-5.28-27.838
				c-0.765-8.94-0.878-21.538-1.919-31.678c-0.336-2.096,0.816-2.703,0.48-4.8c-1.029-13.05-0.226-27.932-0.48-41.756
				c0.166-2.086-1.161-2.679-1.44-4.32c-0.32-11.839,0.639-24.957-0.48-35.997c0.378-1.061,1.679-1.201,2.4-1.92
				c1.742-1.687,0.934-4.771,0.959-7.199c0.079-7.502-0.059-16.549,0-24.478c0-0.32,0-0.641,0-0.96
				c0.978-1.422,0.748-4.053,2.88-4.319c-0.062-4.589,2.078-7.337,4.8-9.6c2.403-0.411,3.356-0.411,5.759,0
				c2.482,1.523,5.262,5.289,4.32,8.64c0.979,1.741,3.369,2.07,3.84,4.319c0.045,9.367-0.033,22.653,0,33.597
				c-0.469,2.069,1.803,1.397,1.919,2.88c0,1.92,0,3.84,0,5.76c0.417,0.539,3.109-0.703,3.84-1.439
				c1.881-0.039,2.994-0.847,4.32-1.44c3.052-0.787,5.521-2.158,8.639-2.88c5.415-2.264,10.873-4.486,16.799-6.239
				c-0.331-5.61,0.811-9.748,0.48-15.358c0-2.72,0-5.439,0-8.159c-0.315-8.955,0.43-16.85,0.479-25.438
				c-0.415-2.305,0.96-6.399-0.959-7.199c-6.283-3.636-11.911-7.927-18.239-11.519c-1.034-1.526-0.757-4.363-1.92-5.759
				c-3.205,0.315-7.673-0.634-10.079,0.479c-4.787-7.692-8.625-16.332-12.479-24.958c-2.088,0.008-4.318,0.159-5.759-0.48
				c-11.294-17.548-20.012-37.968-21.118-62.395c-0.539-3.7,1.014-6.91,0-9.599c1.057-3.913,0.987-8.071,1.439-11.519
				c0.349-2.547,1.678-5.853,1.44-8.639c1.161-1.708,0.917-3.861,1.44-5.76c0.07-0.254,0.905-0.779,0.96-0.96
				c0.133-0.44-0.124-0.996,0-1.44c1.012-3.634,3.102-8.61,4.32-12.959c1.586-0.813,1.24-3.56,2.4-4.799
				c0.976-1.264,1.649-2.83,2.399-4.32c1.069-3.571,3.461-5.818,4.8-9.119c3.845-5.274,7.593-10.646,11.999-15.359
				C126.904,42.214,129.624,39.494,132.144,36.574z M187.819,8.736c-0.197-0.818-0.619,0.101-1.44,0
				c-13.95,4.129-26.363,9.794-37.437,16.799c-11.163,6.916-20.445,15.712-28.798,25.438c-7.738,10.34-14.193,21.963-19.198,35.037
				c-4.146,13.933-7.473,28.684-6.72,47.516c2.392,23.526,10.614,41.222,20.639,57.115c1.903,0.177,4.6-0.44,5.759,0.48
				c3.427,8.572,8.354,15.644,11.519,24.478c3.84,0,7.68,0,11.519,0c0.195,2.205,1.143,3.656,1.44,5.759
				c3.821,1.938,7.104,4.416,10.559,6.719c1.951,0.929,3.487,2.272,5.28,3.36c1.613,2.055,4.077,0.991,6.239,0
				c0.524-0.712-0.758-3.7-1.44-4.799c-0.03-2.37-1.409-3.391-1.44-5.76c-1.417-3.382-2.345-7.253-3.359-11.039
				c-0.729-20.243-0.504-41.262,0.96-60.955c1.459-19.639,3.935-38.298,10.559-52.795c2.272-3.007,4.937-5.623,8.159-7.679
				c2.263-0.271,3.637-0.691,5.759,0c0.32-13.279-0.639-27.837,0.48-40.317c25.119,0.319,51.514-0.638,75.833,0.48
				c0,13.279,0,26.558,0,39.837c0.944,0.257,5.385-0.34,7.2,0.479c7.477,4.202,9.348,14.01,11.999,23.038
				c1.979,9.699,3.896,19.462,4.799,30.238c2.516,20.639,2.817,44.556,1.92,67.194c-1.279,3.68-1.874,8.045-3.359,11.519
				c-0.097,2.463-1.269,3.851-1.439,6.24c-0.198,1.445-2.868,4.615,0,4.799c1.557,2.223,3.394-0.666,5.279-0.96
				c1.085-1.635,3.332-2.107,4.8-3.359c3.331-2.108,6.434-4.446,10.079-6.24c0.587-1.973,0.814-4.305,1.92-5.759
				c3.52,0,7.039,0,10.559,0c3.718-8.762,8.551-16.407,12.479-24.958c1.76,0,3.52,0,5.279,0
				c5.658-6.661,10.284-14.354,13.438-23.518c3.19-9.129,5.207-19.431,6.72-30.238c2.242-24.904-2.941-46.258-10.56-62.875
				c-16.827-32.608-44.936-53.936-82.553-65.755c-1.123,1.437-0.644,4.477-2.88,4.8c-21.106-2.821-47.396-2.356-68.634,0
				C189.029,11.687,188.756,9.879,187.819,8.736z M187.819,50.973c0,54.555,0,109.111,0,163.667c-0.62,3.762,4.761,3.738,3.36,6.719
				c-1.997-1.522-3.655-3.384-4.8-5.759c0-39.517,0-79.034,0-118.55c0-1.28,0-2.56,0-3.84c-0.349-1.09,0.865-3.745-0.959-3.36
				c-4.938-1.413-8.617,2.579-10.559,5.76c-2.657,3.263-4.146,7.693-5.28,12.479c-2.872,8.808-4.142,19.216-5.28,29.757
				c-2.239,21.279-2.601,44.436-2.399,68.154c0.403,1.196,0.628,2.572,0.48,4.32c2.083,7.355,4.282,14.596,6.719,21.598
				c-1.354,1.365-4.833,0.607-4.8,3.36c0.197,28.995-0.951,56.644-0.96,85.433c7.721-2.466,15.926-4.727,23.038-7.199
				c2.334-0.812,4.78-1.887,6.72-3.36c0.541-20.418,1.516-45.323-0.96-64.314c1.425-1.774,2.291-4.108,3.84-5.76
				c1.378-1.821,1.847-4.552,4.319-5.279c2.56,0,5.12,0,7.68,0c3.339,0.34,3.765,3.594,7.199,3.84c6.56,0,13.119,0,19.678,0
				c3.095-0.745,3.452-4.228,7.2-4.32c2.56,0,5.119,0,7.68,0c2.777,3.622,5.237,7.561,7.679,11.519
				c-1.218,2.622-0.781,6.898-1.439,10.079c0.313,17.925-0.632,37.108,0.479,54.235c3.894,2.826,9.869,3.57,14.399,5.76
				c5.27,1.61,10.129,3.63,15.358,5.279c-0.616-28.661-0.585-57.97-1.439-86.393c-0.189-2.211-3.651-1.149-3.84-3.36
				c2.267-7.172,4.337-14.541,6.239-22.078c1.159-23.335,0.451-48.261-1.92-69.594c-1.525-10.634-2.774-21.544-5.76-30.717
				c-1.046-5.033-2.498-9.661-4.8-13.439c-2.023-3.72-5.888-7.124-11.519-5.76c-1.119,41.117-0.16,84.313-0.48,126.229
				c-0.526,1.393-1.533,2.306-2.399,3.36c-0.775,0.832-1.32,3.338-2.88,1.92c1.003-2.517,3.735-3.304,3.84-6.719
				c0-55.036,0-110.071,0-165.106c-24.318,0-48.636,0-72.954,0C187.74,49.614,187.778,50.292,187.819,50.973z M255.014,266.955
				c0.099-8.415-0.867-15.333,0.96-21.118c-1.434-1.606-2.56-3.521-3.36-5.76c-2.113-0.926-2.04-4.039-4.319-4.799
				c-2.399,0-4.799,0-7.199,0c-1.734,1.786-3.333,3.706-5.76,4.799c-7.039,0-14.079,0-21.118,0
				c-2.227-0.973-3.729-2.671-5.759-3.839c-1.774-0.798-6.866-0.798-8.64,0c-1.619,3.821-4.475,6.404-6.239,10.079
				c0.52,3.46,0.966,5.552,0.96,10.56c0.319,6.721-0.638,14.717,0.48,20.639c2.619-1.061,5.12-2.239,8.159-2.88
				c1.057-0.703,2.062-1.459,3.84-1.44c1.148-0.771,2.26-1.579,4.319-1.439c2.544-6.271,10.376-10.682,18.719-8.159
				c1.409,1.15,2.95,2.169,4.319,3.359c1.341,1.379,2.065,3.374,3.36,4.8c5.713,1.967,11.403,3.956,16.798,6.239
				C255.648,275.269,254.697,270.479,255.014,266.955z M115.345,247.757c-3.921,0.718-5.555,3.724-5.76,8.159
				c4.16,0,8.319,0,12.479,0C121.835,251.187,120.164,247.897,115.345,247.757z M334.207,247.757
				c-4.268,0.372-5.564,3.715-6.239,7.68c4.003-0.317,9.274,0.635,12.479-0.48C339.354,251.569,338.627,247.816,334.207,247.757z
				 M107.666,257.836c-2.917,9.082-0.792,23.206-1.44,34.557c0.007,2.407-2.989,1.811-2.879,4.32c0,11.199,0,22.397,0,33.597
				c0.067,2.173,2.135,2.345,1.919,4.8c0.193,18.526-0.461,37.898,0.48,55.676c0.876,17.842,1.375,36.062,6.24,49.916
				c2.4,0,4.8,0,7.199,0c4.261-12.059,5.222-27.416,6.24-42.717c1.01-15.309,1.62-31.018,1.44-47.517
				c2.661-2.618,5.746-4.812,8.639-7.199c1.281-1.438,3.238-2.201,4.32-3.84c1.985-0.733,2.653-2.785,4.799-3.359
				c2.418-3.021,6.104-4.774,8.639-7.68c1.858-0.861,2.84-2.6,4.8-3.359c0.698-2.021,3.571-1.868,3.84-4.319
				c-0.339-10.259,0.8-19.039,0.48-29.277c-11.99,3.688-22.589,8.769-34.557,12.479c0-2.24,0-4.479,0-6.72
				c-0.274-1.485-2.569-0.95-1.92-3.359c0-5.729,0-12.659,0-19.198c0-6.547,1.236-13.639-2.4-17.279
				C118.824,256.356,111.818,256.752,107.666,257.836z M325.567,258.315c-1.53,0.55-1.341,2.818-2.399,3.84
				c-1.007,9.553-0.242,20.876-0.48,31.197c0.622,2.702-2.062,2.099-1.439,4.8c-0.177,1.903,0.439,4.6-0.48,5.76
				c-11.518-3.841-22.516-8.202-33.597-12.479c-0.128,10.366,0.044,20.434,0.479,30.237c2.31,2.811,5.939,4.3,8.16,7.199
				c3.578,1.701,5.69,4.868,9.119,6.72c2.309,2.811,5.938,4.3,8.159,7.199c1.837,0.723,3.132,1.987,4.319,3.359
				c1.648,1.072,3.57,1.869,4.319,3.84c-0.308,24.498,0.483,49.91,3.36,70.554c0.997,7.154,1.488,14.385,4.8,20.159
				c2.239,0,4.479,0,6.719,0c5.606-13.273,5.457-32.301,6.72-49.916c0.515-19.052,0.229-36.496,0-55.676
				c0.668-2.532,3.128-3.271,3.359-6.239c0-10.399,0-20.799,0-31.197c0.144-2.544-2.501-2.299-1.92-5.28
				c-0.755-11.884,1.969-27.246-2.399-35.517c-5.279,0-10.56,0-15.839,0C325.924,257.072,325.547,257.495,325.567,258.315z
				 M236.295,272.715c-0.859-2.66-2.809-4.23-4.319-6.239c-1.799-0.761-3.377-1.742-5.28-2.4c-4.464-0.464-6.917,1.083-9.599,2.4
				c-1.586,1.933-3.403,3.636-4.8,5.759c-5.706,2.454-11.692,4.627-17.758,6.72c0,8.959,0,17.919,0,26.878
				c6.652-2.307,12.546-5.372,19.198-7.68c0.962,2.397,1.57,5.149,2.4,7.68c5.439,0,10.879,0,16.319,0
				c1.375-2.465,1.388-6.291,3.359-8.159c2.843,1.637,6.258,2.701,9.599,3.84c1.352,0.888,3.161,1.318,4.8,1.919
				c1.505,0.479,3.579,2.191,4.8,1.44c0-8.479,0-16.959,0-25.438C248.553,277.416,242.827,274.662,236.295,272.715z"/>
		</g>
	</g>
</g>
</svg>
