<?xml version="1.0" encoding="utf-8"?>
<!-- Generator: Adobe Illustrator 14.0.0, SVG Export Plug-In . SVG Version: 6.00 Build 43363)  -->
<!DOCTYPE svg PUBLIC "-//W3C//DTD SVG 1.1//EN" "http://www.w3.org/Graphics/SVG/1.1/DTD/svg11.dtd">
<svg version="1.1"
	 id="svg2408" xmlns:svg="http://www.w3.org/2000/svg" xmlns:inkscape="http://www.inkscape.org/namespaces/inkscape" xmlns:rdf="http://www.w3.org/1999/02/22-rdf-syntax-ns#" xmlns:cc="http://creativecommons.org/ns#" xmlns:dc="http://purl.org/dc/elements/1.1/"
	 xmlns="http://www.w3.org/2000/svg" xmlns:xlink="http://www.w3.org/1999/xlink" x="0px" y="0px" width="193.167px" height="96px"
	 viewBox="0 0 193.167 96" enable-background="new 0 0 193.167 96" xml:space="preserve">
<filter  id="filter3174" color-interpolation-filters="sRGB">
	<feGaussianBlur  id="feGaussianBlur3176" stdDeviation="1.71"></feGaussianBlur>
</filter>
<g id="layer2" display="none">
	<g id="rect3745" display="inline" opacity="0.9" filter="url(#filter3174)" enable-background="new    ">
		
			<linearGradient id="SVGID_1_" gradientUnits="userSpaceOnUse" x1="-187.3438" y1="-711.6948" x2="-187.3438" y2="-623.3599" gradientTransform="matrix(1.0059 0 0 -0.9942 285.7003 -615.8989)">
			<stop  offset="0" style="stop-color:#000000"/>
			<stop  offset="1" style="stop-color:#000000;stop-opacity:0.5882"/>
		</linearGradient>
		<path fill="url(#SVGID_1_)" d="M8.759,3.846h176.983c3.575,0,6.473,2.776,6.473,6.199V85.47c0,3.425-2.896,6.199-6.473,6.199
			H8.759c-3.574,0-6.472-2.774-6.472-6.199V10.044C2.288,6.622,5.186,3.846,8.759,3.846z"/>
	</g>
</g>
<g id="ToTranslate">
	<g>
		
			<linearGradient id="path4496_19_" gradientUnits="userSpaceOnUse" x1="-261.0972" y1="-613.2271" x2="-271.0434" y2="-616.0969" gradientTransform="matrix(-0.9211 -0.2641 -0.2641 0.9211 -220.5265 542.9485)">
			<stop  offset="0" style="stop-color:#848484"/>
			<stop  offset="1" style="stop-color:#454545"/>
		</linearGradient>
		<path id="path4496_16_" inkscape:connector-curvature="0" fill="url(#path4496_19_)" d="M171.871,82.061h20.215v-70h-20.215
			V82.061z"/>
		
			<linearGradient id="path4500_19_" gradientUnits="userSpaceOnUse" x1="-270.0601" y1="-615.7979" x2="-283.8875" y2="-619.7623" gradientTransform="matrix(-0.9211 -0.2641 -0.2641 0.9211 -220.5265 542.9485)">
			<stop  offset="0" style="stop-color:#000000"/>
			<stop  offset="1" style="stop-color:#000000;stop-opacity:0.2"/>
		</linearGradient>
		<path id="path4500_16_" inkscape:connector-curvature="0" fill="url(#path4500_19_)" d="M192.085,82.061h11.334v-70h-11.334
			V82.061z"/>
		<path id="path4498_16_" inkscape:connector-curvature="0" opacity="0.4" fill="#FFFFFF" enable-background="new    " d="
			M191.419,82.061h0.666v-70h-0.666V82.061z"/>
	</g>
	<g>
		
			<linearGradient id="path4496_20_" gradientUnits="userSpaceOnUse" x1="-249.061" y1="-609.7764" x2="-259.0064" y2="-612.6461" gradientTransform="matrix(-0.9211 -0.2641 -0.2641 0.9211 -220.5265 542.9485)">
			<stop  offset="0" style="stop-color:#848484"/>
			<stop  offset="1" style="stop-color:#454545"/>
		</linearGradient>
		<path id="path4496_1_" inkscape:connector-curvature="0" fill="url(#path4496_20_)" d="M159.871,82.061h20.215v-70h-20.215V82.061
			z"/>
		
			<linearGradient id="path4500_20_" gradientUnits="userSpaceOnUse" x1="-258.0186" y1="-612.3467" x2="-271.8506" y2="-616.3126" gradientTransform="matrix(-0.9211 -0.2641 -0.2641 0.9211 -220.5265 542.9485)">
			<stop  offset="0" style="stop-color:#000000"/>
			<stop  offset="1" style="stop-color:#000000;stop-opacity:0.2"/>
		</linearGradient>
		<path id="path4500_1_" inkscape:connector-curvature="0" fill="url(#path4500_20_)" d="M180.085,82.061h11.334v-70h-11.334V82.061
			z"/>
		<path id="path4498_1_" inkscape:connector-curvature="0" opacity="0.4" fill="#FFFFFF" enable-background="new    " d="
			M179.419,82.061h0.666v-70h-0.666V82.061z"/>
	</g>
	<g>
		
			<linearGradient id="path4496_21_" gradientUnits="userSpaceOnUse" x1="-237.0205" y1="-606.3232" x2="-246.9677" y2="-609.1934" gradientTransform="matrix(-0.9211 -0.2641 -0.2641 0.9211 -220.5265 542.9485)">
			<stop  offset="0" style="stop-color:#848484"/>
			<stop  offset="1" style="stop-color:#454545"/>
		</linearGradient>
		<path id="path4496_2_" inkscape:connector-curvature="0" fill="url(#path4496_21_)" d="M147.871,82.061h20.215v-70h-20.215V82.061
			z"/>
		
			<linearGradient id="path4500_21_" gradientUnits="userSpaceOnUse" x1="-245.98" y1="-608.9043" x2="-259.8097" y2="-612.8696" gradientTransform="matrix(-0.9211 -0.2641 -0.2641 0.9211 -220.5265 542.9485)">
			<stop  offset="0" style="stop-color:#000000"/>
			<stop  offset="1" style="stop-color:#000000;stop-opacity:0.2"/>
		</linearGradient>
		<path id="path4500_2_" inkscape:connector-curvature="0" fill="url(#path4500_21_)" d="M168.085,82.061h11.334v-70h-11.334V82.061
			z"/>
		<path id="path4498_2_" inkscape:connector-curvature="0" opacity="0.4" fill="#FFFFFF" enable-background="new    " d="
			M167.419,82.061h0.666v-70h-0.666V82.061z"/>
	</g>
	<g>
		
			<linearGradient id="path4496_22_" gradientUnits="userSpaceOnUse" x1="-224.9834" y1="-602.8721" x2="-234.9301" y2="-605.7421" gradientTransform="matrix(-0.9211 -0.2641 -0.2641 0.9211 -220.5265 542.9485)">
			<stop  offset="0" style="stop-color:#848484"/>
			<stop  offset="1" style="stop-color:#454545"/>
		</linearGradient>
		<path id="path4496_3_" inkscape:connector-curvature="0" fill="url(#path4496_22_)" d="M135.871,82.061h20.215v-70h-20.215V82.061
			z"/>
		
			<linearGradient id="path4500_22_" gradientUnits="userSpaceOnUse" x1="-233.9448" y1="-605.4419" x2="-247.7745" y2="-609.4071" gradientTransform="matrix(-0.9211 -0.2641 -0.2641 0.9211 -220.5265 542.9485)">
			<stop  offset="0" style="stop-color:#000000"/>
			<stop  offset="1" style="stop-color:#000000;stop-opacity:0.2"/>
		</linearGradient>
		<path id="path4500_3_" inkscape:connector-curvature="0" fill="url(#path4500_22_)" d="M156.085,82.061h11.334v-70h-11.334V82.061
			z"/>
		<path id="path4498_3_" inkscape:connector-curvature="0" opacity="0.4" fill="#FFFFFF" enable-background="new    " d="
			M155.419,82.061h0.666v-70h-0.666V82.061z"/>
	</g>
	<g>
		
			<linearGradient id="path4496_23_" gradientUnits="userSpaceOnUse" x1="-212.9458" y1="-599.4209" x2="-222.8925" y2="-602.291" gradientTransform="matrix(-0.9211 -0.2641 -0.2641 0.9211 -220.5265 542.9485)">
			<stop  offset="0" style="stop-color:#848484"/>
			<stop  offset="1" style="stop-color:#454545"/>
		</linearGradient>
		<path id="path4496_4_" inkscape:connector-curvature="0" fill="url(#path4496_23_)" d="M123.871,82.061h20.215v-70h-20.215V82.061
			z"/>
		
			<linearGradient id="path4500_23_" gradientUnits="userSpaceOnUse" x1="-221.9067" y1="-601.9854" x2="-235.7364" y2="-605.9506" gradientTransform="matrix(-0.9211 -0.2641 -0.2641 0.9211 -220.5265 542.9485)">
			<stop  offset="0" style="stop-color:#000000"/>
			<stop  offset="1" style="stop-color:#000000;stop-opacity:0.2"/>
		</linearGradient>
		<path id="path4500_4_" inkscape:connector-curvature="0" fill="url(#path4500_23_)" d="M144.085,82.061h11.334v-70h-11.334V82.061
			z"/>
		<path id="path4498_4_" inkscape:connector-curvature="0" opacity="0.4" fill="#FFFFFF" enable-background="new    " d="
			M143.419,82.061h0.666v-70h-0.666V82.061z"/>
	</g>
	<g>
		
			<linearGradient id="path4496_24_" gradientUnits="userSpaceOnUse" x1="-200.9053" y1="-595.9678" x2="-210.8519" y2="-598.8378" gradientTransform="matrix(-0.9211 -0.2641 -0.2641 0.9211 -220.5265 542.9485)">
			<stop  offset="0" style="stop-color:#848484"/>
			<stop  offset="1" style="stop-color:#454545"/>
		</linearGradient>
		<path id="path4496_5_" inkscape:connector-curvature="0" fill="url(#path4496_24_)" d="M111.871,82.061h20.215v-70h-20.215V82.061
			z"/>
		
			<linearGradient id="path4500_24_" gradientUnits="userSpaceOnUse" x1="-209.8735" y1="-598.5117" x2="-223.7032" y2="-602.4771" gradientTransform="matrix(-0.9211 -0.2641 -0.2641 0.9211 -220.5265 542.9485)">
			<stop  offset="0" style="stop-color:#000000"/>
			<stop  offset="1" style="stop-color:#000000;stop-opacity:0.2"/>
		</linearGradient>
		<path id="path4500_5_" inkscape:connector-curvature="0" fill="url(#path4500_24_)" d="M132.085,82.061h11.334v-70h-11.334V82.061
			z"/>
		<path id="path4498_5_" inkscape:connector-curvature="0" opacity="0.4" fill="#FFFFFF" enable-background="new    " d="
			M131.419,82.061h0.666v-70h-0.666V82.061z"/>
	</g>
	<g>
		
			<linearGradient id="path4496_25_" gradientUnits="userSpaceOnUse" x1="-188.8687" y1="-592.5181" x2="-198.8149" y2="-595.3879" gradientTransform="matrix(-0.9211 -0.2641 -0.2641 0.9211 -220.5265 542.9485)">
			<stop  offset="0" style="stop-color:#848484"/>
			<stop  offset="1" style="stop-color:#454545"/>
		</linearGradient>
		<path id="path4496_6_" inkscape:connector-curvature="0" fill="url(#path4496_25_)" d="M99.871,82.061h20.215v-70H99.871V82.061z"
			/>
		
			<linearGradient id="path4500_25_" gradientUnits="userSpaceOnUse" x1="-197.8296" y1="-595.0869" x2="-211.6593" y2="-599.0521" gradientTransform="matrix(-0.9211 -0.2641 -0.2641 0.9211 -220.5265 542.9485)">
			<stop  offset="0" style="stop-color:#000000"/>
			<stop  offset="1" style="stop-color:#000000;stop-opacity:0.2"/>
		</linearGradient>
		<path id="path4500_6_" inkscape:connector-curvature="0" fill="url(#path4500_25_)" d="M120.085,82.061h11.334v-70h-11.334V82.061
			z"/>
		<path id="path4498_6_" inkscape:connector-curvature="0" opacity="0.4" fill="#FFFFFF" enable-background="new    " d="
			M119.419,82.061h0.666v-70h-0.666V82.061z"/>
	</g>
	<g>
		
			<linearGradient id="path4496_26_" gradientUnits="userSpaceOnUse" x1="-176.8315" y1="-589.0659" x2="-186.7769" y2="-591.9356" gradientTransform="matrix(-0.9211 -0.2641 -0.2641 0.9211 -220.5265 542.9485)">
			<stop  offset="0" style="stop-color:#848484"/>
			<stop  offset="1" style="stop-color:#454545"/>
		</linearGradient>
		<path id="path4496_7_" inkscape:connector-curvature="0" fill="url(#path4496_26_)" d="M87.871,82.061h20.215v-70H87.871V82.061z"
			/>
		
			<linearGradient id="path4500_26_" gradientUnits="userSpaceOnUse" x1="-185.7935" y1="-591.6235" x2="-199.623" y2="-595.5888" gradientTransform="matrix(-0.9211 -0.2641 -0.2641 0.9211 -220.5265 542.9485)">
			<stop  offset="0" style="stop-color:#000000"/>
			<stop  offset="1" style="stop-color:#000000;stop-opacity:0.2"/>
		</linearGradient>
		<path id="path4500_7_" inkscape:connector-curvature="0" fill="url(#path4500_26_)" d="M108.085,82.061h11.334v-70h-11.334V82.061
			z"/>
		<path id="path4498_7_" inkscape:connector-curvature="0" opacity="0.4" fill="#FFFFFF" enable-background="new    " d="
			M107.419,82.061h0.666v-70h-0.666V82.061z"/>
	</g>
	<g>
		
			<linearGradient id="path4496_27_" gradientUnits="userSpaceOnUse" x1="-164.7925" y1="-585.6152" x2="-174.7383" y2="-588.4849" gradientTransform="matrix(-0.9211 -0.2641 -0.2641 0.9211 -220.5265 542.9485)">
			<stop  offset="0" style="stop-color:#848484"/>
			<stop  offset="1" style="stop-color:#454545"/>
		</linearGradient>
		<path id="path4496_8_" inkscape:connector-curvature="0" fill="url(#path4496_27_)" d="M75.871,82.061h20.215v-70H75.871V82.061z"
			/>
		
			<linearGradient id="path4500_27_" gradientUnits="userSpaceOnUse" x1="-173.7637" y1="-588.1406" x2="-187.5955" y2="-592.1066" gradientTransform="matrix(-0.9211 -0.2641 -0.2641 0.9211 -220.5265 542.9485)">
			<stop  offset="0" style="stop-color:#000000"/>
			<stop  offset="1" style="stop-color:#000000;stop-opacity:0.2"/>
		</linearGradient>
		<path id="path4500_8_" inkscape:connector-curvature="0" fill="url(#path4500_27_)" d="M96.085,82.061h11.334v-70H96.085V82.061z"
			/>
		<path id="path4498_8_" inkscape:connector-curvature="0" opacity="0.4" fill="#FFFFFF" enable-background="new    " d="
			M95.419,82.061h0.666v-70h-0.666V82.061z"/>
	</g>
	<g>
		
			<linearGradient id="path4496_28_" gradientUnits="userSpaceOnUse" x1="-152.7544" y1="-582.1621" x2="-162.7016" y2="-585.0323" gradientTransform="matrix(-0.9211 -0.2641 -0.2641 0.9211 -220.5265 542.9485)">
			<stop  offset="0" style="stop-color:#848484"/>
			<stop  offset="1" style="stop-color:#454545"/>
		</linearGradient>
		<path id="path4496_9_" inkscape:connector-curvature="0" fill="url(#path4496_28_)" d="M63.871,82.061h20.215v-70H63.871V82.061z"
			/>
		
			<linearGradient id="path4500_28_" gradientUnits="userSpaceOnUse" x1="-161.7153" y1="-584.7275" x2="-175.545" y2="-588.6928" gradientTransform="matrix(-0.9211 -0.2641 -0.2641 0.9211 -220.5265 542.9485)">
			<stop  offset="0" style="stop-color:#000000"/>
			<stop  offset="1" style="stop-color:#000000;stop-opacity:0.2"/>
		</linearGradient>
		<path id="path4500_9_" inkscape:connector-curvature="0" fill="url(#path4500_28_)" d="M84.085,82.061h11.334v-70H84.085V82.061z"
			/>
		<path id="path4498_9_" inkscape:connector-curvature="0" opacity="0.4" fill="#FFFFFF" enable-background="new    " d="
			M83.419,82.061h0.666v-70h-0.666V82.061z"/>
	</g>
	<g>
		
			<linearGradient id="path4496_29_" gradientUnits="userSpaceOnUse" x1="-140.7158" y1="-578.7109" x2="-150.6635" y2="-581.5813" gradientTransform="matrix(-0.9211 -0.2641 -0.2641 0.9211 -220.5265 542.9485)">
			<stop  offset="0" style="stop-color:#848484"/>
			<stop  offset="1" style="stop-color:#454545"/>
		</linearGradient>
		<path id="path4496_10_" inkscape:connector-curvature="0" fill="url(#path4496_29_)" d="M51.871,82.061h20.215v-70H51.871V82.061z
			"/>
		
			<linearGradient id="path4500_29_" gradientUnits="userSpaceOnUse" x1="-149.6768" y1="-581.2808" x2="-163.5052" y2="-585.2458" gradientTransform="matrix(-0.9211 -0.2641 -0.2641 0.9211 -220.5265 542.9485)">
			<stop  offset="0" style="stop-color:#000000"/>
			<stop  offset="1" style="stop-color:#000000;stop-opacity:0.2"/>
		</linearGradient>
		<path id="path4500_10_" inkscape:connector-curvature="0" fill="url(#path4500_29_)" d="M72.085,82.061h11.334v-70H72.085V82.061z
			"/>
		<path id="path4498_10_" inkscape:connector-curvature="0" opacity="0.4" fill="#FFFFFF" enable-background="new    " d="
			M71.419,82.061h0.666v-70h-0.666V82.061z"/>
	</g>
	<g>
		
			<linearGradient id="path4496_30_" gradientUnits="userSpaceOnUse" x1="-128.6772" y1="-575.2583" x2="-138.6239" y2="-578.1283" gradientTransform="matrix(-0.9211 -0.2641 -0.2641 0.9211 -220.5265 542.9485)">
			<stop  offset="0" style="stop-color:#848484"/>
			<stop  offset="1" style="stop-color:#454545"/>
		</linearGradient>
		<path id="path4496_11_" inkscape:connector-curvature="0" fill="url(#path4496_30_)" d="M39.871,82.061h20.215v-70H39.871V82.061z
			"/>
		
			<linearGradient id="path4500_30_" gradientUnits="userSpaceOnUse" x1="-137.6455" y1="-577.7969" x2="-151.4752" y2="-581.7622" gradientTransform="matrix(-0.9211 -0.2641 -0.2641 0.9211 -220.5265 542.9485)">
			<stop  offset="0" style="stop-color:#000000"/>
			<stop  offset="1" style="stop-color:#000000;stop-opacity:0.2"/>
		</linearGradient>
		<path id="path4500_11_" inkscape:connector-curvature="0" fill="url(#path4500_30_)" d="M60.085,82.061h11.334v-70H60.085V82.061z
			"/>
		<path id="path4498_11_" inkscape:connector-curvature="0" opacity="0.4" fill="#FFFFFF" enable-background="new    " d="
			M59.419,82.061h0.666v-70h-0.666V82.061z"/>
	</g>
	<g>
		
			<linearGradient id="path4496_31_" gradientUnits="userSpaceOnUse" x1="-116.6401" y1="-571.8076" x2="-126.5859" y2="-574.6774" gradientTransform="matrix(-0.9211 -0.2641 -0.2641 0.9211 -220.5265 542.9485)">
			<stop  offset="0" style="stop-color:#848484"/>
			<stop  offset="1" style="stop-color:#454545"/>
		</linearGradient>
		<path id="path4496_12_" inkscape:connector-curvature="0" fill="url(#path4496_31_)" d="M27.871,82.061h20.215v-70H27.871V82.061z
			"/>
		
			<linearGradient id="path4500_31_" gradientUnits="userSpaceOnUse" x1="-125.5962" y1="-574.3877" x2="-139.4259" y2="-578.353" gradientTransform="matrix(-0.9211 -0.2641 -0.2641 0.9211 -220.5265 542.9485)">
			<stop  offset="0" style="stop-color:#000000"/>
			<stop  offset="1" style="stop-color:#000000;stop-opacity:0.2"/>
		</linearGradient>
		<path id="path4500_12_" inkscape:connector-curvature="0" fill="url(#path4500_31_)" d="M48.085,82.061h11.334v-70H48.085V82.061z
			"/>
		<path id="path4498_12_" inkscape:connector-curvature="0" opacity="0.4" fill="#FFFFFF" enable-background="new    " d="
			M47.419,82.061h0.666v-70h-0.666V82.061z"/>
	</g>
	<g>
		
			<linearGradient id="path4496_32_" gradientUnits="userSpaceOnUse" x1="-104.6006" y1="-568.3564" x2="-114.5464" y2="-571.2261" gradientTransform="matrix(-0.9211 -0.2641 -0.2641 0.9211 -220.5265 542.9485)">
			<stop  offset="0" style="stop-color:#848484"/>
			<stop  offset="1" style="stop-color:#454545"/>
		</linearGradient>
		<path id="path4496_13_" inkscape:connector-curvature="0" fill="url(#path4496_32_)" d="M15.871,82.061h20.215v-70H15.871V82.061z
			"/>
		
			<linearGradient id="path4500_32_" gradientUnits="userSpaceOnUse" x1="-113.5615" y1="-570.9248" x2="-127.3912" y2="-574.89" gradientTransform="matrix(-0.9211 -0.2641 -0.2641 0.9211 -220.5265 542.9485)">
			<stop  offset="0" style="stop-color:#000000"/>
			<stop  offset="1" style="stop-color:#000000;stop-opacity:0.2"/>
		</linearGradient>
		<path id="path4500_13_" inkscape:connector-curvature="0" fill="url(#path4500_32_)" d="M36.085,82.061h11.334v-70H36.085V82.061z
			"/>
		<path id="path4498_13_" inkscape:connector-curvature="0" opacity="0.4" fill="#FFFFFF" enable-background="new    " d="
			M35.419,82.061h0.666v-70h-0.666V82.061z"/>
	</g>
	<g>
		
			<linearGradient id="path4496_33_" gradientUnits="userSpaceOnUse" x1="-92.562" y1="-564.9043" x2="-102.5074" y2="-567.774" gradientTransform="matrix(-0.9211 -0.2641 -0.2641 0.9211 -220.5265 542.9485)">
			<stop  offset="0" style="stop-color:#848484"/>
			<stop  offset="1" style="stop-color:#454545"/>
		</linearGradient>
		<path id="path4496_14_" inkscape:connector-curvature="0" fill="url(#path4496_33_)" d="M3.871,82.061h20.215v-70H3.871V82.061z"
			/>
		
			<linearGradient id="path4500_33_" gradientUnits="userSpaceOnUse" x1="-101.5225" y1="-567.4736" x2="-115.3509" y2="-571.4387" gradientTransform="matrix(-0.9211 -0.2641 -0.2641 0.9211 -220.5265 542.9485)">
			<stop  offset="0" style="stop-color:#000000"/>
			<stop  offset="1" style="stop-color:#000000;stop-opacity:0.2"/>
		</linearGradient>
		<path id="path4500_14_" inkscape:connector-curvature="0" fill="url(#path4500_33_)" d="M24.085,82.061h11.334v-70H24.085V82.061z
			"/>
		<path id="path4498_14_" inkscape:connector-curvature="0" opacity="0.4" fill="#FFFFFF" enable-background="new    " d="
			M23.419,82.061h0.666v-70h-0.666V82.061z"/>
	</g>
	<g>
		
			<linearGradient id="path4496_34_" gradientUnits="userSpaceOnUse" x1="-80.5229" y1="-561.4521" x2="-90.4706" y2="-564.3224" gradientTransform="matrix(-0.9211 -0.2641 -0.2641 0.9211 -220.5265 542.9485)">
			<stop  offset="0" style="stop-color:#848484"/>
			<stop  offset="1" style="stop-color:#454545"/>
		</linearGradient>
		<path id="path4496_15_" inkscape:connector-curvature="0" fill="url(#path4496_34_)" d="M-8.129,82.061h20.215v-70H-8.129V82.061z
			"/>
		
			<linearGradient id="path4500_34_" gradientUnits="userSpaceOnUse" x1="-89.4902" y1="-564.0015" x2="-103.3222" y2="-567.9674" gradientTransform="matrix(-0.9211 -0.2641 -0.2641 0.9211 -220.5265 542.9485)">
			<stop  offset="0" style="stop-color:#000000"/>
			<stop  offset="1" style="stop-color:#000000;stop-opacity:0.2"/>
		</linearGradient>
		<path id="path4500_15_" inkscape:connector-curvature="0" fill="url(#path4500_34_)" d="M12.085,82.061h11.334v-70H12.085V82.061z
			"/>
		<path id="path4498_15_" inkscape:connector-curvature="0" opacity="0.4" fill="#FFFFFF" enable-background="new    " d="
			M11.419,82.061h0.666v-70h-0.666V82.061z"/>
	</g>
	<g>
		
			<linearGradient id="path4496_35_" gradientUnits="userSpaceOnUse" x1="-68.4858" y1="-558.001" x2="-78.4326" y2="-560.8711" gradientTransform="matrix(-0.9211 -0.2641 -0.2641 0.9211 -220.5265 542.9485)">
			<stop  offset="0" style="stop-color:#848484"/>
			<stop  offset="1" style="stop-color:#454545"/>
		</linearGradient>
		<path id="path4496_17_" inkscape:connector-curvature="0" fill="url(#path4496_35_)" d="M-20.129,82.061H0.085v-70h-20.215V82.061
			z"/>
		
			<linearGradient id="path4500_35_" gradientUnits="userSpaceOnUse" x1="-77.4395" y1="-560.5996" x2="-91.269" y2="-564.5648" gradientTransform="matrix(-0.9211 -0.2641 -0.2641 0.9211 -220.5265 542.9485)">
			<stop  offset="0" style="stop-color:#000000"/>
			<stop  offset="1" style="stop-color:#000000;stop-opacity:0.2"/>
		</linearGradient>
		<path id="path4500_17_" inkscape:connector-curvature="0" fill="url(#path4500_35_)" d="M0.085,82.061h11.334v-70H0.085V82.061z"
			/>
		<path id="path4498_17_" inkscape:connector-curvature="0" opacity="0.4" fill="#FFFFFF" enable-background="new    " d="
			M-0.581,82.061h0.666v-70h-0.666V82.061z"/>
	</g>
	<g>
		
			<linearGradient id="path4496_36_" gradientUnits="userSpaceOnUse" x1="-56.4482" y1="-554.5498" x2="-66.3949" y2="-557.4199" gradientTransform="matrix(-0.9211 -0.2641 -0.2641 0.9211 -220.5265 542.9485)">
			<stop  offset="0" style="stop-color:#848484"/>
			<stop  offset="1" style="stop-color:#454545"/>
		</linearGradient>
		<path id="path4496_18_" inkscape:connector-curvature="0" fill="url(#path4496_36_)" d="M-32.129,82.061h20.215v-70h-20.215
			V82.061z"/>
		
			<linearGradient id="path4500_36_" gradientUnits="userSpaceOnUse" x1="-65.4058" y1="-557.1299" x2="-79.2355" y2="-561.0952" gradientTransform="matrix(-0.9211 -0.2641 -0.2641 0.9211 -220.5265 542.9485)">
			<stop  offset="0" style="stop-color:#000000"/>
			<stop  offset="1" style="stop-color:#000000;stop-opacity:0.2"/>
		</linearGradient>
		<path id="path4500_18_" inkscape:connector-curvature="0" fill="url(#path4500_36_)" d="M-11.915,82.061h11.334v-70h-11.334
			V82.061z"/>
		<path id="path4498_18_" inkscape:connector-curvature="0" opacity="0.4" fill="#FFFFFF" enable-background="new    " d="
			M-12.581,82.061h0.666v-70h-0.666V82.061z"/>
	</g>
	
		<animateTransform  type="translate" fill="freeze" values="0, 0; 12,0" dur="1s" begin="0s" restart="always" repeatCount="indefinite" accumulate="none" additive="sum" calcMode="linear" attributeName="transform">
		</animateTransform>
</g>
<g>
	<g display="none">
		<g display="inline">
			
				<linearGradient id="rect3769_5_" gradientUnits="userSpaceOnUse" x1="-271.5" y1="782.0713" x2="-256.875" y2="782.0713" gradientTransform="matrix(1 0 0 1 279.125 -690.0605)">
				<stop  offset="0" style="stop-color:#D9D9D9"/>
				<stop  offset="0.2502" style="stop-color:#C6C6C6"/>
				<stop  offset="1" style="stop-color:#696969"/>
			</linearGradient>
			<path id="rect3769_4_" fill="url(#rect3769_5_)" d="M7.625,94.061v-4.1c0-1.105,0.896-2,2-2H20.25c1.104,0,2,0.895,2,2v4.1
				c0,1.104-0.896,2-2,2H9.625C8.521,96.061,7.625,95.165,7.625,94.061z"/>
			<path id="rect3779_4_" inkscape:connector-curvature="0" opacity="0.5" fill="#FFFFFF" enable-background="new    " d="
				M20.25,96.061c1.107,0,2-0.893,2-2v-1c0,1.107-0.893,2-2,2H9.625c-1.107,0-2-0.893-2-2v1c0,1.107,0.893,2,2,2H20.25z"/>
			<rect id="rect3798_4_" x="7.625" y="92.061" opacity="0.2" enable-background="new    " width="14.625" height="1"/>
		</g>
		<g display="inline">
			
				<linearGradient id="rect3769_6_" gradientUnits="userSpaceOnUse" x1="-111.3755" y1="782.0459" x2="-96.7505" y2="782.0459" gradientTransform="matrix(1 0 0 1 279.125 -690.0605)">
				<stop  offset="0" style="stop-color:#D9D9D9"/>
				<stop  offset="0.2502" style="stop-color:#C6C6C6"/>
				<stop  offset="1" style="stop-color:#696969"/>
			</linearGradient>
			<path id="rect3769_3_" fill="url(#rect3769_6_)" d="M167.75,94.035v-4.1c0-1.105,0.896-2,2-2h10.625c1.104,0,2,0.895,2,2v4.1
				c0,1.104-0.896,2-2,2H169.75C168.646,96.035,167.75,95.141,167.75,94.035z"/>
			<path id="rect3779_3_" inkscape:connector-curvature="0" opacity="0.5" fill="#FFFFFF" enable-background="new    " d="
				M180.375,96.035c1.107,0,2-0.893,2-2v-1c0,1.107-0.893,2-2,2H169.75c-1.106,0-2-0.893-2-2v1c0,1.107,0.894,2,2,2H180.375z"/>
			<rect id="rect3798_3_" x="167.75" y="92.035" opacity="0.2" enable-background="new    " width="14.625" height="1"/>
		</g>
		<g display="inline">
			
				<linearGradient id="rect3769_7_" gradientUnits="userSpaceOnUse" x1="-271.5" y1="-618" x2="-256.875" y2="-618" gradientTransform="matrix(1 0 0 -1 279.125 -613.9648)">
				<stop  offset="0" style="stop-color:#D9D9D9"/>
				<stop  offset="0.2502" style="stop-color:#C6C6C6"/>
				<stop  offset="1" style="stop-color:#696969"/>
			</linearGradient>
			<path id="rect3769_1_" fill="url(#rect3769_7_)" d="M9.625-0.015H20.25c1.104,0,2,0.896,2,2v4.1c0,1.104-0.896,2-2,2H9.625
				c-1.104,0-2-0.896-2-2v-4.1C7.625,0.881,8.521-0.015,9.625-0.015z"/>
			<path id="rect3779_1_" inkscape:connector-curvature="0" opacity="0.5" fill="#FFFFFF" enable-background="new    " d="
				M9.625-0.015c-1.107,0-2,0.892-2,2v1c0-1.108,0.893-2,2-2H20.25c1.107,0,2,0.892,2,2v-1c0-1.108-0.893-2-2-2H9.625z"/>
			<rect id="rect3798_1_" x="7.625" y="2.985" opacity="0.2" enable-background="new    " width="14.625" height="1"/>
		</g>
		<g display="inline">
			
				<linearGradient id="rect3769_8_" gradientUnits="userSpaceOnUse" x1="-111.3755" y1="-618.0254" x2="-96.7505" y2="-618.0254" gradientTransform="matrix(1 0 0 -1 279.125 -613.9648)">
				<stop  offset="0" style="stop-color:#D9D9D9"/>
				<stop  offset="0.2502" style="stop-color:#C6C6C6"/>
				<stop  offset="1" style="stop-color:#696969"/>
			</linearGradient>
			<path id="rect3769_2_" fill="url(#rect3769_8_)" d="M169.75,0.011h10.625c1.104,0,2,0.896,2,2v4.1c0,1.104-0.896,2-2,2H169.75
				c-1.104,0-2-0.896-2-2v-4.1C167.75,0.906,168.646,0.011,169.75,0.011z"/>
			<path id="rect3779_2_" inkscape:connector-curvature="0" opacity="0.5" fill="#FFFFFF" enable-background="new    " d="
				M169.75,0.011c-1.106,0-2,0.892-2,2v1c0-1.108,0.894-2,2-2h10.625c1.107,0,2,0.892,2,2v-1c0-1.108-0.893-2-2-2H169.75z"/>
			<rect id="rect3798_2_" x="167.75" y="3.011" opacity="0.2" enable-background="new    " width="14.625" height="1"/>
		</g>
	</g>
	<g id="layer1_1_">
		
			<linearGradient id="rect3754_1_" gradientUnits="userSpaceOnUse" x1="-2074.4419" y1="-513.8911" x2="-2074.4419" y2="-697.8601" gradientTransform="matrix(0 -1 -1 0 -509.2915 -2065.3813)">
			<stop  offset="0" style="stop-color:#666666"/>
			<stop  offset="0.2502" style="stop-color:#E6E6E6"/>
			<stop  offset="0.5129" style="stop-color:#808080"/>
			<stop  offset="1" style="stop-color:#474747"/>
		</linearGradient>
		<path id="rect3754" inkscape:connector-curvature="0" fill="url(#rect3754_1_)" d="M6,4.061c-3.324,0-6,2.676-6,6v4h193.167v-4
			c0-3.324-2.676-6-6-6H6z"/>
		
			<linearGradient id="path3765_1_" gradientUnits="userSpaceOnUse" x1="-185.3906" y1="-513.8911" x2="-185.3906" y2="-697.8601" gradientTransform="matrix(0 1 -1 0 -509.2915 270.4517)">
			<stop  offset="0" style="stop-color:#666666"/>
			<stop  offset="0.2502" style="stop-color:#E6E6E6"/>
			<stop  offset="0.5129" style="stop-color:#808080"/>
			<stop  offset="1" style="stop-color:#474747"/>
		</linearGradient>
		<path id="path3765" inkscape:connector-curvature="0" fill="url(#path3765_1_)" d="M6,90.061c-3.324,0-6-2.676-6-6v-4h193.167v4
			c0,3.324-2.676,6-6,6H6z"/>
		
			<linearGradient id="rect3831_2_" gradientUnits="userSpaceOnUse" x1="-248.6245" y1="-618.0259" x2="-248.6245" y2="-631.5994" gradientTransform="matrix(1 0 0 -1 277.125 -613.9648)">
			<stop  offset="0" style="stop-color:#FFFFFF"/>
			<stop  offset="1" style="stop-color:#FFFFFF;stop-opacity:0"/>
		</linearGradient>
		
			<rect id="rect3831" x="18" y="4.061" opacity="0.4" fill="url(#rect3831_2_)" enable-background="new    " width="21" height="10"/>
		
			<linearGradient id="rect3841_1_" gradientUnits="userSpaceOnUse" x1="384.9966" y1="-618.0259" x2="384.9966" y2="-627.4576" gradientTransform="matrix(0.5714 0 0 -1 -149.9874 -613.9648)">
			<stop  offset="0" style="stop-color:#FFFFFF"/>
			<stop  offset="1" style="stop-color:#FFFFFF;stop-opacity:0"/>
		</linearGradient>
		
			<rect id="rect3841" x="64" y="4.061" opacity="0.2" fill="url(#rect3841_1_)" enable-background="new    " width="12" height="12"/>
		<rect id="rect3847" y="80.061" opacity="0.29" fill="#FFFFFF" enable-background="new    " width="193.167" height="2"/>
		<rect id="rect3854" y="12.061" opacity="0.1" enable-background="new    " width="193.167" height="2"/>
		<path id="rect3869" inkscape:connector-curvature="0" opacity="0.1" enable-background="new    " d="M2,14.061v2h189.167v-2H2z"/>
		
			<linearGradient id="rect3871_1_" gradientUnits="userSpaceOnUse" x1="2454.6577" y1="1271.0264" x2="2454.6577" y2="1263.12" gradientTransform="matrix(0.2381 0 0 1 -526.9539 -1180.9648)">
			<stop  offset="0" style="stop-color:#FFFFFF"/>
			<stop  offset="1" style="stop-color:#FFFFFF;stop-opacity:0"/>
		</linearGradient>
		
			<rect id="rect3871" x="55" y="80" opacity="0.1" fill="url(#rect3871_1_)" enable-background="new    " width="5" height="10.061"/>
		
			<linearGradient id="rect3831_3_" gradientUnits="userSpaceOnUse" x1="-248.6245" y1="-696.0259" x2="-248.6245" y2="-707.118" gradientTransform="matrix(1 0 0 -1 277.125 -613.9648)">
			<stop  offset="0" style="stop-color:#FFFFFF"/>
			<stop  offset="1" style="stop-color:#FFFFFF;stop-opacity:0"/>
		</linearGradient>
		
			<rect id="rect3831_1_" x="18" y="82.061" opacity="0.4" fill="url(#rect3831_3_)" enable-background="new    " width="21" height="8.172"/>
	</g>
	<g id="layer5" display="none">
		
			<radialGradient id="path3615_1_" cx="-303.4346" cy="-708.0859" r="88.2012" gradientTransform="matrix(1.1573 0 0 -0.9959 447.7488 -615.1241)" gradientUnits="userSpaceOnUse">
			<stop  offset="0" style="stop-color:#FFFFFF"/>
			<stop  offset="1" style="stop-color:#FFFFFF;stop-opacity:0"/>
		</radialGradient>
		
			<path id="path3615" inkscape:connector-curvature="0" display="inline" opacity="0.2" fill="url(#path3615_1_)" enable-background="new    " d="
			M4.156,4.404C3.854,4.501,3.56,4.608,3.281,4.748c-0.557,0.279-1.06,0.666-1.5,1.094C1.561,6.056,1.372,6.284,1.187,6.53
			c-0.185,0.246-0.355,0.508-0.5,0.781c-0.14,0.265-0.276,0.525-0.375,0.812c-0.01,0.03-0.021,0.063-0.031,0.094
			c-0.09,0.278-0.139,0.58-0.188,0.875C0.042,9.41,0,9.726,0,10.061v2v2h1v-3v-2C1,8.697,1.052,8.34,1.125,7.999
			C1.148,7.89,1.188,7.793,1.219,7.687C1.246,7.591,1.25,7.496,1.281,7.404c0.008-0.022,0.023-0.041,0.031-0.062
			c0.076-0.209,0.18-0.43,0.281-0.625C1.65,6.609,1.716,6.508,1.781,6.405C1.805,6.366,1.819,6.319,1.843,6.28
			c0.094-0.141,0.205-0.276,0.312-0.406c0.152-0.186,0.322-0.37,0.5-0.531c0.099-0.089,0.206-0.169,0.312-0.25
			C3.08,5.007,3.19,4.92,3.311,4.843C3.342,4.823,3.373,4.8,3.405,4.781c0.007-0.004,0.024,0.004,0.031,0
			C3.669,4.641,3.9,4.504,4.156,4.404z M189.011,4.404c0.256,0.1,0.486,0.236,0.719,0.375c0.008,0.004,0.023-0.004,0.031,0
			c0.107,0.065,0.211,0.146,0.312,0.219c0.151,0.109,0.299,0.218,0.438,0.344c0.012,0.01,0.02,0.021,0.031,0.031
			c0.166,0.153,0.326,0.326,0.469,0.5c0.107,0.13,0.219,0.265,0.312,0.406c0.061,0.093,0.133,0.184,0.188,0.281
			c0.047,0.08,0.084,0.167,0.125,0.25c0.08,0.164,0.156,0.357,0.219,0.531c0.008,0.022,0.023,0.041,0.031,0.062
			c0.068,0.196,0.111,0.387,0.156,0.594c0.072,0.342,0.125,0.699,0.125,1.064v2v3h1v-2v-2c0-0.335-0.041-0.651-0.094-0.969
			c-0.05-0.295-0.099-0.597-0.189-0.875c-0.01-0.031-0.02-0.063-0.029-0.094c-0.1-0.288-0.234-0.547-0.375-0.812
			c-0.146-0.273-0.314-0.536-0.5-0.781c-0.186-0.245-0.375-0.474-0.596-0.688c-0.438-0.428-0.941-0.814-1.5-1.094
			C189.606,4.608,189.313,4.501,189.011,4.404z M0,80.061v2v2c0,3.324,2.676,6,6,6h181.167c3.324,0,6-2.676,6-6v-2v-2h-1v1v2
			c0,2.781-2.219,5-5,5h-2H18H6c-2.782,0-5-2.219-5-5v-2v-1H0z"/>
		
			<linearGradient id="rect3728_1_" gradientUnits="userSpaceOnUse" x1="-182.541" y1="-618.0259" x2="-182.541" y2="-677.3041" gradientTransform="matrix(1 0 0 -1 279.125 -613.9648)">
			<stop  offset="0" style="stop-color:#FFFFFF"/>
			<stop  offset="1" style="stop-color:#FFFFFF;stop-opacity:0"/>
		</linearGradient>
		
			<path id="rect3728" inkscape:connector-curvature="0" display="inline" opacity="0.2" fill="url(#rect3728_1_)" enable-background="new    " d="
			M6,4.061c-3.324,0-6,2.676-6,6v2v2h1v-1v-2c0-2.782,2.218-5,5-5h12h167.167h2c2.781,0,5,2.218,5,5v2v1h1v-2v-2
			c0-3.324-2.676-6-6-6H6z M0,80.061v2v2c0,0.336,0.042,0.65,0.094,0.971c0.049,0.295,0.097,0.597,0.188,0.875
			c0.01,0.029,0.021,0.062,0.031,0.094c0.099,0.287,0.235,0.547,0.375,0.812c0.145,0.272,0.315,0.535,0.5,0.78
			c0.185,0.246,0.374,0.476,0.594,0.688c0.44,0.428,0.943,0.812,1.5,1.094c0.278,0.141,0.573,0.247,0.875,0.344
			c-0.256-0.1-0.487-0.234-0.719-0.375c-0.007-0.004-0.024,0.006-0.031,0c-0.032-0.02-0.062-0.043-0.094-0.062
			c-0.121-0.076-0.231-0.164-0.344-0.25c-0.106-0.081-0.213-0.161-0.312-0.25c-0.178-0.162-0.348-0.347-0.5-0.531
			c-0.107-0.131-0.218-0.267-0.312-0.405c-0.025-0.039-0.039-0.087-0.062-0.125c-0.065-0.104-0.13-0.205-0.188-0.312
			c-0.101-0.195-0.206-0.416-0.281-0.625c-0.008-0.021-0.023-0.041-0.031-0.062c-0.032-0.093-0.036-0.188-0.062-0.281
			c-0.03-0.105-0.07-0.203-0.094-0.312C1.052,85.781,1,85.425,1,85.061v-2v-3H0z M192.167,80.061v3v2
			c0,0.364-0.053,0.723-0.125,1.062c-0.045,0.207-0.088,0.396-0.156,0.594c-0.008,0.021-0.023,0.041-0.031,0.062
			c-0.062,0.174-0.139,0.367-0.219,0.531c-0.041,0.082-0.078,0.17-0.125,0.25c-0.055,0.098-0.127,0.188-0.188,0.279
			c-0.095,0.143-0.205,0.275-0.312,0.406c-0.143,0.174-0.303,0.348-0.469,0.5c-0.013,0.01-0.021,0.021-0.031,0.029
			c-0.139,0.125-0.285,0.234-0.438,0.346c-0.105,0.072-0.205,0.152-0.312,0.219c-0.008,0.004-0.023-0.004-0.031,0
			c-0.23,0.141-0.463,0.275-0.719,0.375c0.303-0.097,0.598-0.204,0.875-0.344c0.557-0.279,1.061-0.666,1.5-1.096
			c0.221-0.213,0.408-0.439,0.594-0.688c0.186-0.247,0.355-0.508,0.5-0.781c0.143-0.266,0.275-0.523,0.375-0.812
			c0.012-0.031,0.021-0.062,0.031-0.095c0.09-0.277,0.139-0.58,0.188-0.875c0.053-0.316,0.094-0.631,0.094-0.967v-2v-2h-1V80.061z"
			/>
	</g>
</g>
</svg>
