<?xml version="1.0" encoding="utf-8"?>
<!-- Generator: Adobe Illustrator 15.0.0, SVG Export Plug-In . SVG Version: 6.00 Build 0)  -->
<!DOCTYPE svg PUBLIC "-//W3C//DTD SVG 1.1//EN" "http://www.w3.org/Graphics/SVG/1.1/DTD/svg11.dtd">
<svg version="1.1"
	 id="svg2408" xmlns:inkscape="http://www.inkscape.org/namespaces/inkscape" xmlns:rdf="http://www.w3.org/1999/02/22-rdf-syntax-ns#" xmlns:svg="http://www.w3.org/2000/svg" xmlns:cc="http://creativecommons.org/ns#" xmlns:dc="http://purl.org/dc/elements/1.1/"
	 xmlns="http://www.w3.org/2000/svg" xmlns:xlink="http://www.w3.org/1999/xlink" x="0px" y="0px" width="96px" height="96px"
	 viewBox="0 0 96 96" enable-background="new 0 0 96 96" xml:space="preserve">
<filter  id="filter3174" color-interpolation-filters="sRGB">
	<feGaussianBlur  id="feGaussianBlur3176" stdDeviation="1.71"></feGaussianBlur>
</filter>
<g id="layer2">
	<g id="rect3745" opacity="0.9" filter="url(#filter3174)" enable-background="new    ">
		
			<linearGradient id="SVGID_1_" gradientUnits="userSpaceOnUse" x1="-524.9185" y1="-11.6333" x2="-524.9185" y2="76.7046" gradientTransform="matrix(1.0059 0 0 -0.9942 576.6647 80.1022)">
			<stop  offset="0" style="stop-color:#000000"/>
			<stop  offset="1" style="stop-color:#000000;stop-opacity:0.5882"/>
		</linearGradient>
		<path fill="url(#SVGID_1_)" d="M8.759,3.846h79.816c3.575,0,6.473,2.776,6.473,6.199V85.47c0,3.425-2.897,6.199-6.473,6.199H8.759
			c-3.574,0-6.472-2.774-6.472-6.199V10.044C2.288,6.622,5.186,3.846,8.759,3.846z"/>
	</g>
</g>
<g id="layer4">
	<g>
		<defs>
			<polygon id="SVGID_2_" points="96,12.061 96.125,82.061 0.125,82.061 0,12.061 			"/>
		</defs>
		<clipPath id="SVGID_3_">
			<use xlink:href="#SVGID_2_"  overflow="visible"/>
		</clipPath>
		<g clip-path="url(#SVGID_3_)">
			
				<linearGradient id="path4496_1_" gradientUnits="userSpaceOnUse" x1="-802.1396" y1="-57.4668" x2="-757.5468" y2="-57.4668" gradientTransform="matrix(0.9211 0.2641 0.2641 -0.9211 743.6573 200.8453)">
				<stop  offset="0" style="stop-color:#848484"/>
				<stop  offset="1" style="stop-color:#454545"/>
			</linearGradient>
			<path id="path4496" inkscape:connector-curvature="0" fill="url(#path4496_1_)" d="M20.964,3.281H0.75v89.438h20.214V3.281z"/>
			<path id="path4498" inkscape:connector-curvature="0" opacity="0.2" fill="#FFFFFF" enable-background="new    " d="M1.416,3.281
				H0.75v89.438h0.666V3.281z"/>
			
				<linearGradient id="path4500_1_" gradientUnits="userSpaceOnUse" x1="-789.9658" y1="-60.5776" x2="-795.5203" y2="-62.1588" gradientTransform="matrix(0.9211 0.2641 0.2641 -0.9211 743.6573 200.8453)">
				<stop  offset="0" style="stop-color:#000000"/>
				<stop  offset="1" style="stop-color:#000000;stop-opacity:0"/>
			</linearGradient>
			<path id="path4500" inkscape:connector-curvature="0" opacity="0.6" fill="url(#path4500_1_)" enable-background="new    " d="
				M0.75,3.281h-7.407v89.438H0.75V3.281z"/>
		</g>
		<g clip-path="url(#SVGID_3_)">
			
				<linearGradient id="path4496_10_" gradientUnits="userSpaceOnUse" x1="-799.3809" y1="-56.6758" x2="-754.7889" y2="-56.6758" gradientTransform="matrix(0.9211 0.2641 0.2641 -0.9211 743.6573 200.8453)">
				<stop  offset="0" style="stop-color:#848484"/>
				<stop  offset="1" style="stop-color:#454545"/>
			</linearGradient>
			<path id="path4496_3_" inkscape:connector-curvature="0" fill="url(#path4496_10_)" d="M23.714,3.281H3.5v89.438h20.214V3.281z"
				/>
			<path id="path4498_3_" inkscape:connector-curvature="0" opacity="0.2" fill="#FFFFFF" enable-background="new    " d="
				M4.166,3.281H3.5v89.438h0.666V3.281z"/>
			
				<linearGradient id="path4500_10_" gradientUnits="userSpaceOnUse" x1="-787.207" y1="-59.7866" x2="-792.7615" y2="-61.3678" gradientTransform="matrix(0.9211 0.2641 0.2641 -0.9211 743.6573 200.8453)">
				<stop  offset="0" style="stop-color:#000000"/>
				<stop  offset="1" style="stop-color:#000000;stop-opacity:0"/>
			</linearGradient>
			
				<path id="path4500_3_" inkscape:connector-curvature="0" opacity="0.6" fill="url(#path4500_10_)" enable-background="new    " d="
				M3.5,3.281h-7.407v89.438H3.5V3.281z"/>
		</g>
		<g clip-path="url(#SVGID_3_)">
			
				<linearGradient id="path4496_11_" gradientUnits="userSpaceOnUse" x1="-791.5967" y1="-54.4434" x2="-747.0038" y2="-54.4434" gradientTransform="matrix(0.9211 0.2641 0.2641 -0.9211 743.6573 200.8453)">
				<stop  offset="0" style="stop-color:#848484"/>
				<stop  offset="1" style="stop-color:#454545"/>
			</linearGradient>
			<path id="path4496_5_" inkscape:connector-curvature="0" fill="url(#path4496_11_)" d="M31.473,3.281H11.259v89.438h20.214V3.281
				z"/>
			<path id="path4498_5_" inkscape:connector-curvature="0" opacity="0.2" fill="#FFFFFF" enable-background="new    " d="
				M11.924,3.281h-0.666v89.438h0.666V3.281z"/>
			
				<linearGradient id="path4500_11_" gradientUnits="userSpaceOnUse" x1="-779.4229" y1="-57.5547" x2="-784.9773" y2="-59.1359" gradientTransform="matrix(0.9211 0.2641 0.2641 -0.9211 743.6573 200.8453)">
				<stop  offset="0" style="stop-color:#000000"/>
				<stop  offset="1" style="stop-color:#000000;stop-opacity:0"/>
			</linearGradient>
			
				<path id="path4500_5_" inkscape:connector-curvature="0" opacity="0.6" fill="url(#path4500_11_)" enable-background="new    " d="
				M11.259,3.281H3.852v89.438h7.407V3.281z"/>
		</g>
		<g clip-path="url(#SVGID_3_)">
			
				<linearGradient id="path4496_12_" gradientUnits="userSpaceOnUse" x1="-775.6641" y1="-49.875" x2="-731.0721" y2="-49.875" gradientTransform="matrix(0.9211 0.2641 0.2641 -0.9211 743.6573 200.8453)">
				<stop  offset="0" style="stop-color:#848484"/>
				<stop  offset="1" style="stop-color:#454545"/>
			</linearGradient>
			<path id="path4496_4_" inkscape:connector-curvature="0" fill="url(#path4496_12_)" d="M47.354,3.281H27.141v89.438h20.214V3.281
				z"/>
			<path id="path4498_4_" inkscape:connector-curvature="0" opacity="0.2" fill="#FFFFFF" enable-background="new    " d="
				M27.806,3.281h-0.666v89.438h0.666V3.281z"/>
			
				<linearGradient id="path4500_12_" gradientUnits="userSpaceOnUse" x1="-763.4893" y1="-52.9858" x2="-769.0437" y2="-54.567" gradientTransform="matrix(0.9211 0.2641 0.2641 -0.9211 743.6573 200.8453)">
				<stop  offset="0" style="stop-color:#000000"/>
				<stop  offset="1" style="stop-color:#000000;stop-opacity:0"/>
			</linearGradient>
			
				<path id="path4500_4_" inkscape:connector-curvature="0" opacity="0.6" fill="url(#path4500_12_)" enable-background="new    " d="
				M27.141,3.281h-7.407v89.438h7.407V3.281z"/>
		</g>
		<g clip-path="url(#SVGID_3_)">
			
				<linearGradient id="path4496_13_" gradientUnits="userSpaceOnUse" x1="-759.7305" y1="-45.3062" x2="-715.1385" y2="-45.3062" gradientTransform="matrix(0.9211 0.2641 0.2641 -0.9211 743.6573 200.8453)">
				<stop  offset="0" style="stop-color:#848484"/>
				<stop  offset="1" style="stop-color:#454545"/>
			</linearGradient>
			<path id="path4496_6_" inkscape:connector-curvature="0" fill="url(#path4496_13_)" d="M63.236,3.28H43.022v89.438h20.214V3.28z"
				/>
			<path id="path4498_6_" inkscape:connector-curvature="0" opacity="0.2" fill="#FFFFFF" enable-background="new    " d="
				M43.688,3.28h-0.665v89.438h0.665V3.28z"/>
			
				<linearGradient id="path4500_13_" gradientUnits="userSpaceOnUse" x1="-747.5566" y1="-48.417" x2="-753.1111" y2="-49.9982" gradientTransform="matrix(0.9211 0.2641 0.2641 -0.9211 743.6573 200.8453)">
				<stop  offset="0" style="stop-color:#000000"/>
				<stop  offset="1" style="stop-color:#000000;stop-opacity:0"/>
			</linearGradient>
			
				<path id="path4500_6_" inkscape:connector-curvature="0" opacity="0.6" fill="url(#path4500_13_)" enable-background="new    " d="
				M43.022,3.28h-7.407v89.438h7.407V3.28z"/>
		</g>
		<g clip-path="url(#SVGID_3_)">
			
				<linearGradient id="path4496_14_" gradientUnits="userSpaceOnUse" x1="-743.7979" y1="-40.7373" x2="-699.205" y2="-40.7373" gradientTransform="matrix(0.9211 0.2641 0.2641 -0.9211 743.6573 200.8453)">
				<stop  offset="0" style="stop-color:#848484"/>
				<stop  offset="1" style="stop-color:#454545"/>
			</linearGradient>
			<path id="path4496_2_" inkscape:connector-curvature="0" fill="url(#path4496_14_)" d="M79.118,3.28H58.904v89.438h20.214V3.28z"
				/>
			<path id="path4498_2_" inkscape:connector-curvature="0" opacity="0.2" fill="#FFFFFF" enable-background="new    " d="
				M59.57,3.28h-0.666v89.438h0.666V3.28z"/>
			
				<linearGradient id="path4500_14_" gradientUnits="userSpaceOnUse" x1="-731.623" y1="-43.8486" x2="-737.1775" y2="-45.4298" gradientTransform="matrix(0.9211 0.2641 0.2641 -0.9211 743.6573 200.8453)">
				<stop  offset="0" style="stop-color:#000000"/>
				<stop  offset="1" style="stop-color:#000000;stop-opacity:0"/>
			</linearGradient>
			
				<path id="path4500_2_" inkscape:connector-curvature="0" opacity="0.6" fill="url(#path4500_14_)" enable-background="new    " d="
				M58.904,3.28h-7.407v89.438h7.407V3.28z"/>
		</g>
		<g clip-path="url(#SVGID_3_)">
			
				<linearGradient id="path4496_15_" gradientUnits="userSpaceOnUse" x1="-728.126" y1="-36.2437" x2="-683.5331" y2="-36.2437" gradientTransform="matrix(0.9211 0.2641 0.2641 -0.9211 743.6573 200.8453)">
				<stop  offset="0" style="stop-color:#848484"/>
				<stop  offset="1" style="stop-color:#454545"/>
			</linearGradient>
			<path id="path4496_9_" inkscape:connector-curvature="0" fill="url(#path4496_15_)" d="M94.739,3.28H74.525v89.438h20.214V3.28z"
				/>
			<path id="path4498_9_" inkscape:connector-curvature="0" opacity="0.2" fill="#FFFFFF" enable-background="new    " d="
				M75.19,3.28h-0.665v89.438h0.665V3.28z"/>
			
				<linearGradient id="path4500_15_" gradientUnits="userSpaceOnUse" x1="-715.9517" y1="-39.3545" x2="-721.5061" y2="-40.9357" gradientTransform="matrix(0.9211 0.2641 0.2641 -0.9211 743.6573 200.8453)">
				<stop  offset="0" style="stop-color:#000000"/>
				<stop  offset="1" style="stop-color:#000000;stop-opacity:0"/>
			</linearGradient>
			
				<path id="path4500_9_" inkscape:connector-curvature="0" opacity="0.6" fill="url(#path4500_15_)" enable-background="new    " d="
				M74.525,3.28h-7.407v89.438h7.407V3.28z"/>
		</g>
		<g clip-path="url(#SVGID_3_)">
			
				<linearGradient id="path4496_16_" gradientUnits="userSpaceOnUse" x1="-714.8584" y1="-32.439" x2="-670.2656" y2="-32.439" gradientTransform="matrix(0.9211 0.2641 0.2641 -0.9211 743.6573 200.8453)">
				<stop  offset="0" style="stop-color:#848484"/>
				<stop  offset="1" style="stop-color:#454545"/>
			</linearGradient>
			<path id="path4496_8_" inkscape:connector-curvature="0" fill="url(#path4496_16_)" d="M107.964,3.28H87.75v89.438h20.214V3.28z"
				/>
			<path id="path4498_8_" inkscape:connector-curvature="0" opacity="0.2" fill="#FFFFFF" enable-background="new    " d="
				M88.416,3.28H87.75v89.438h0.666V3.28z"/>
			
				<linearGradient id="path4500_16_" gradientUnits="userSpaceOnUse" x1="-702.6836" y1="-35.5503" x2="-708.2387" y2="-37.1317" gradientTransform="matrix(0.9211 0.2641 0.2641 -0.9211 743.6573 200.8453)">
				<stop  offset="0" style="stop-color:#000000"/>
				<stop  offset="1" style="stop-color:#000000;stop-opacity:0"/>
			</linearGradient>
			
				<path id="path4500_8_" inkscape:connector-curvature="0" opacity="0.6" fill="url(#path4500_16_)" enable-background="new    " d="
				M87.75,3.28h-7.407v89.438h7.407V3.28z"/>
		</g>
		<g clip-path="url(#SVGID_3_)">
			
				<linearGradient id="path4496_17_" gradientUnits="userSpaceOnUse" x1="-707.751" y1="-30.4009" x2="-663.1581" y2="-30.4009" gradientTransform="matrix(0.9211 0.2641 0.2641 -0.9211 743.6573 200.8453)">
				<stop  offset="0" style="stop-color:#848484"/>
				<stop  offset="1" style="stop-color:#454545"/>
			</linearGradient>
			<path id="path4496_7_" inkscape:connector-curvature="0" fill="url(#path4496_17_)" d="M115.049,3.28H94.835v89.438h20.214V3.28z
				"/>
			<path id="path4498_7_" inkscape:connector-curvature="0" opacity="0.2" fill="#FFFFFF" enable-background="new    " d="
				M95.5,3.28h-0.665v89.438H95.5V3.28z"/>
			
				<linearGradient id="path4500_17_" gradientUnits="userSpaceOnUse" x1="-695.5771" y1="-33.5127" x2="-701.1316" y2="-35.0939" gradientTransform="matrix(0.9211 0.2641 0.2641 -0.9211 743.6573 200.8453)">
				<stop  offset="0" style="stop-color:#000000"/>
				<stop  offset="1" style="stop-color:#000000;stop-opacity:0"/>
			</linearGradient>
			
				<path id="path4500_7_" inkscape:connector-curvature="0" opacity="0.6" fill="url(#path4500_17_)" enable-background="new    " d="
				M94.835,3.28h-7.407v89.438h7.407V3.28z"/>
		</g>
		
			<linearGradient id="rect3813_1_" gradientUnits="userSpaceOnUse" x1="-1190.9648" y1="-89.875" x2="-1100.9648" y2="-89.875" gradientTransform="matrix(0 -1 -1 0 -41.875 -1097.9648)">
			<stop  offset="0" style="stop-color:#000000"/>
			<stop  offset="1" style="stop-color:#000000;stop-opacity:0"/>
		</linearGradient>
		
			<rect id="rect3813" y="3" display="none" opacity="0.4" clip-path="url(#SVGID_3_)" fill="url(#rect3813_1_)" enable-background="new    " width="96" height="90"/>
	</g>
</g>
<g>
	
		<linearGradient id="rect3769_5_" gradientUnits="userSpaceOnUse" x1="-563.5" y1="86.0713" x2="-548.875" y2="86.0713" gradientTransform="matrix(1 0 0 1 571.125 5.9395)">
		<stop  offset="0" style="stop-color:#D9D9D9"/>
		<stop  offset="0.2502" style="stop-color:#C6C6C6"/>
		<stop  offset="1" style="stop-color:#696969"/>
	</linearGradient>
	<path id="rect3769_4_" fill="url(#rect3769_5_)" d="M7.625,94.061v-4.1c0-1.105,0.896-2,2-2H20.25c1.104,0,2,0.895,2,2v4.1
		c0,1.104-0.896,2-2,2H9.625C8.521,96.061,7.625,95.165,7.625,94.061z"/>
	<path id="rect3779_4_" inkscape:connector-curvature="0" opacity="0.5" fill="#FFFFFF" enable-background="new    " d="
		M20.25,96.061c1.107,0,2-0.893,2-2v-1c0,1.107-0.893,2-2,2H9.625c-1.107,0-2-0.893-2-2v1c0,1.107,0.893,2,2,2H20.25z"/>
	<rect id="rect3798_4_" x="7.625" y="92.061" opacity="0.2" enable-background="new    " width="14.625" height="1"/>
</g>
<g>
	
		<linearGradient id="rect3769_6_" gradientUnits="userSpaceOnUse" x1="-497.375" y1="86.0459" x2="-482.75" y2="86.0459" gradientTransform="matrix(1 0 0 1 571.125 5.9395)">
		<stop  offset="0" style="stop-color:#D9D9D9"/>
		<stop  offset="0.2502" style="stop-color:#C6C6C6"/>
		<stop  offset="1" style="stop-color:#696969"/>
	</linearGradient>
	<path id="rect3769_3_" fill="url(#rect3769_6_)" d="M73.75,94.035v-4.1c0-1.105,0.896-2,2-2h10.625c1.104,0,2,0.895,2,2v4.1
		c0,1.104-0.896,2-2,2H75.75C74.646,96.035,73.75,95.14,73.75,94.035z"/>
	<path id="rect3779_3_" inkscape:connector-curvature="0" opacity="0.5" fill="#FFFFFF" enable-background="new    " d="
		M86.375,96.035c1.107,0,2-0.893,2-2v-1c0,1.107-0.893,2-2,2H75.75c-1.107,0-2-0.893-2-2v1c0,1.107,0.893,2,2,2H86.375z"/>
	<rect id="rect3798_3_" x="73.75" y="92.035" opacity="0.2" enable-background="new    " width="14.625" height="1"/>
</g>
<g>
	
		<linearGradient id="rect3769_7_" gradientUnits="userSpaceOnUse" x1="-563.5" y1="78" x2="-548.875" y2="78" gradientTransform="matrix(1 0 0 -1 571.125 82.0352)">
		<stop  offset="0" style="stop-color:#D9D9D9"/>
		<stop  offset="0.2502" style="stop-color:#C6C6C6"/>
		<stop  offset="1" style="stop-color:#696969"/>
	</linearGradient>
	<path id="rect3769_1_" fill="url(#rect3769_7_)" d="M9.625-0.015H20.25c1.104,0,2,0.896,2,2v4.1c0,1.104-0.896,2-2,2H9.625
		c-1.104,0-2-0.896-2-2v-4.1C7.625,0.881,8.521-0.015,9.625-0.015z"/>
	<path id="rect3779_1_" inkscape:connector-curvature="0" opacity="0.5" fill="#FFFFFF" enable-background="new    " d="
		M9.625-0.015c-1.107,0-2,0.892-2,2v1c0-1.108,0.893-2,2-2H20.25c1.107,0,2,0.892,2,2v-1c0-1.108-0.893-2-2-2H9.625z"/>
	<rect id="rect3798_1_" x="7.625" y="2.985" opacity="0.2" enable-background="new    " width="14.625" height="1"/>
</g>
<g>
	
		<linearGradient id="rect3769_8_" gradientUnits="userSpaceOnUse" x1="-497.375" y1="77.9746" x2="-482.75" y2="77.9746" gradientTransform="matrix(1 0 0 -1 571.125 82.0352)">
		<stop  offset="0" style="stop-color:#D9D9D9"/>
		<stop  offset="0.2502" style="stop-color:#C6C6C6"/>
		<stop  offset="1" style="stop-color:#696969"/>
	</linearGradient>
	<path id="rect3769_2_" fill="url(#rect3769_8_)" d="M75.75,0.011h10.625c1.104,0,2,0.896,2,2v4.1c0,1.104-0.896,2-2,2H75.75
		c-1.104,0-2-0.896-2-2v-4.1C73.75,0.906,74.646,0.011,75.75,0.011z"/>
	<path id="rect3779_2_" inkscape:connector-curvature="0" opacity="0.5" fill="#FFFFFF" enable-background="new    " d="
		M75.75,0.011c-1.107,0-2,0.892-2,2v1c0-1.108,0.893-2,2-2h10.625c1.107,0,2,0.892,2,2v-1c0-1.108-0.893-2-2-2H75.75z"/>
	<rect id="rect3798_2_" x="73.75" y="3.011" opacity="0.2" enable-background="new    " width="14.625" height="1"/>
</g>
<g id="layer1_1_">
	
		<linearGradient id="rect3754_1_" gradientUnits="userSpaceOnUse" x1="-1203.0249" y1="-44.1611" x2="-1203.0249" y2="-135.5897" gradientTransform="matrix(0 -1 -1 0 -41.875 -1193.9648)">
		<stop  offset="0" style="stop-color:#666666"/>
		<stop  offset="0.2502" style="stop-color:#E6E6E6"/>
		<stop  offset="0.5129" style="stop-color:#808080"/>
		<stop  offset="1" style="stop-color:#474747"/>
	</linearGradient>
	<path id="rect3754" inkscape:connector-curvature="0" fill="url(#rect3754_1_)" d="M6,4.061c-3.324,0-6,2.676-6,6v4h96v-4
		c0-3.324-2.676-6-6-6H6z"/>
	
		<linearGradient id="path3765_1_" gradientUnits="userSpaceOnUse" x1="-705.9741" y1="-44.1611" x2="-705.9741" y2="-135.5897" gradientTransform="matrix(0 1 -1 0 -41.875 791.0352)">
		<stop  offset="0" style="stop-color:#666666"/>
		<stop  offset="0.2502" style="stop-color:#E6E6E6"/>
		<stop  offset="0.5129" style="stop-color:#808080"/>
		<stop  offset="1" style="stop-color:#474747"/>
	</linearGradient>
	<path id="path3765" inkscape:connector-curvature="0" fill="url(#path3765_1_)" d="M6,90.061c-3.324,0-6-2.676-6-6v-4h96v4
		c0,3.324-2.676,6-6,6H6z"/>
	
		<linearGradient id="rect3831_2_" gradientUnits="userSpaceOnUse" x1="-540.6245" y1="77.9746" x2="-540.6245" y2="64.4011" gradientTransform="matrix(1 0 0 -1 569.125 82.0352)">
		<stop  offset="0" style="stop-color:#FFFFFF"/>
		<stop  offset="1" style="stop-color:#FFFFFF;stop-opacity:0"/>
	</linearGradient>
	
		<rect id="rect3831" x="18" y="4.061" opacity="0.4" fill="url(#rect3831_2_)" enable-background="new    " width="21" height="10"/>
	
		<linearGradient id="rect3841_1_" gradientUnits="userSpaceOnUse" x1="-257.5938" y1="77.9746" x2="-257.5938" y2="68.5429" gradientTransform="matrix(0.5714 0 0 -1 217.1963 82.0352)">
		<stop  offset="0" style="stop-color:#FFFFFF"/>
		<stop  offset="1" style="stop-color:#FFFFFF;stop-opacity:0"/>
	</linearGradient>
	
		<rect id="rect3841" x="64" y="4.061" opacity="0.2" fill="url(#rect3841_1_)" enable-background="new    " width="12" height="12"/>
	<rect id="rect3847" y="80.061" opacity="0.29" fill="#FFFFFF" enable-background="new    " width="96" height="2"/>
	<rect id="rect3854" y="12.061" opacity="0.1" enable-background="new    " width="96" height="2"/>
	<path id="rect3869" inkscape:connector-curvature="0" opacity="0.1" enable-background="new    " d="M2,14.061v2h92v-2H2z"/>
	
		<linearGradient id="rect3871_1_" gradientUnits="userSpaceOnUse" x1="666.9766" y1="575.0264" x2="666.9766" y2="567.119" gradientTransform="matrix(0.2381 0 0 1 -101.3038 -484.9648)">
		<stop  offset="0" style="stop-color:#FFFFFF"/>
		<stop  offset="1" style="stop-color:#FFFFFF;stop-opacity:0"/>
	</linearGradient>
	
		<rect id="rect3871" x="55" y="80" opacity="0.1" fill="url(#rect3871_1_)" enable-background="new    " width="5" height="10.061"/>
	
		<linearGradient id="rect3831_3_" gradientUnits="userSpaceOnUse" x1="-540.6245" y1="-0.0259" x2="-540.6245" y2="-11.118" gradientTransform="matrix(1 0 0 -1 569.125 82.0352)">
		<stop  offset="0" style="stop-color:#FFFFFF"/>
		<stop  offset="1" style="stop-color:#FFFFFF;stop-opacity:0"/>
	</linearGradient>
	
		<rect id="rect3831_1_" x="18" y="82.061" opacity="0.4" fill="url(#rect3831_3_)" enable-background="new    " width="21" height="8.172"/>
</g>
<g id="layer5">
	
		<radialGradient id="path3615_1_" cx="-573.8779" cy="-9.2227" r="43.828" gradientTransform="matrix(1.1573 0 0 -0.9959 712.1562 80.8758)" gradientUnits="userSpaceOnUse">
		<stop  offset="0" style="stop-color:#FFFFFF"/>
		<stop  offset="1" style="stop-color:#FFFFFF;stop-opacity:0"/>
	</radialGradient>
	<path id="path3615" inkscape:connector-curvature="0" opacity="0.2" fill="url(#path3615_1_)" enable-background="new    " d="
		M4.156,4.404C3.854,4.501,3.56,4.608,3.281,4.748c-0.557,0.279-1.06,0.666-1.5,1.094c-0.22,0.214-0.409,0.442-0.594,0.688
		s-0.355,0.508-0.5,0.781c-0.14,0.265-0.276,0.525-0.375,0.812c-0.01,0.03-0.021,0.063-0.031,0.094
		c-0.09,0.278-0.139,0.58-0.188,0.875C0.042,9.41,0,9.726,0,10.061v2v2h1v-3v-2c0-0.364,0.052-0.721,0.125-1.062
		c0.023-0.109,0.063-0.206,0.094-0.312C1.246,7.591,1.25,7.496,1.281,7.404c0.008-0.022,0.023-0.041,0.031-0.062
		c0.076-0.209,0.18-0.43,0.281-0.625c0.057-0.108,0.123-0.209,0.188-0.312c0.024-0.039,0.038-0.086,0.062-0.125
		c0.094-0.141,0.205-0.276,0.312-0.406c0.152-0.186,0.322-0.37,0.5-0.531c0.099-0.089,0.206-0.169,0.312-0.25
		c0.113-0.086,0.223-0.173,0.344-0.25c0.031-0.02,0.062-0.043,0.094-0.062c0.007-0.004,0.024,0.004,0.031,0
		C3.669,4.641,3.9,4.504,4.156,4.404z M91.844,4.404c0.256,0.1,0.486,0.236,0.719,0.375c0.008,0.004,0.023-0.004,0.031,0
		c0.108,0.065,0.21,0.146,0.312,0.219c0.152,0.109,0.299,0.218,0.438,0.344c0.012,0.01,0.02,0.021,0.031,0.031
		c0.166,0.153,0.326,0.326,0.469,0.5c0.107,0.13,0.219,0.265,0.312,0.406c0.061,0.093,0.133,0.184,0.188,0.281
		c0.046,0.08,0.084,0.167,0.125,0.25c0.08,0.164,0.156,0.357,0.219,0.531c0.008,0.022,0.023,0.041,0.031,0.062
		c0.068,0.196,0.112,0.387,0.156,0.594C94.947,8.339,95,8.696,95,9.061v2v3h1v-2v-2c0-0.335-0.041-0.651-0.094-0.969
		c-0.049-0.295-0.098-0.597-0.188-0.875c-0.01-0.031-0.021-0.063-0.031-0.094c-0.099-0.288-0.234-0.547-0.375-0.812
		c-0.145-0.273-0.315-0.536-0.5-0.781s-0.374-0.474-0.594-0.688c-0.439-0.428-0.943-0.814-1.5-1.094
		C92.44,4.608,92.146,4.501,91.844,4.404z M0,80.061v2v2c0,3.324,2.676,6,6,6h84c3.324,0,6-2.676,6-6v-2v-2h-1v1v2
		c0,2.781-2.219,5-5,5h-2H18H6c-2.782,0-5-2.219-5-5v-2v-1H0z"/>
	
		<linearGradient id="rect3728_1_" gradientUnits="userSpaceOnUse" x1="-523.125" y1="77.9746" x2="-523.125" y2="18.6974" gradientTransform="matrix(1 0 0 -1 571.125 82.0352)">
		<stop  offset="0" style="stop-color:#FFFFFF"/>
		<stop  offset="1" style="stop-color:#FFFFFF;stop-opacity:0"/>
	</linearGradient>
	<path id="rect3728" inkscape:connector-curvature="0" opacity="0.2" fill="url(#rect3728_1_)" enable-background="new    " d="
		M6,4.061c-3.324,0-6,2.676-6,6v2v2h1v-1v-2c0-2.782,2.218-5,5-5h12h70h2c2.781,0,5,2.218,5,5v2v1h1v-2v-2c0-3.324-2.676-6-6-6H6z
		 M0,80.061v2v2c0,0.335,0.042,0.65,0.094,0.969c0.049,0.295,0.097,0.597,0.188,0.875c0.01,0.03,0.021,0.063,0.031,0.094
		c0.099,0.287,0.235,0.547,0.375,0.812c0.145,0.273,0.315,0.535,0.5,0.781s0.374,0.474,0.594,0.688
		c0.44,0.428,0.943,0.814,1.5,1.094c0.278,0.14,0.573,0.247,0.875,0.344c-0.256-0.1-0.487-0.236-0.719-0.375
		c-0.007-0.004-0.024,0.004-0.031,0c-0.032-0.02-0.062-0.043-0.094-0.062c-0.121-0.076-0.231-0.164-0.344-0.25
		c-0.106-0.081-0.213-0.161-0.312-0.25c-0.178-0.162-0.348-0.346-0.5-0.531c-0.107-0.131-0.218-0.266-0.312-0.406
		c-0.025-0.039-0.039-0.086-0.062-0.125c-0.065-0.104-0.13-0.205-0.188-0.312c-0.101-0.195-0.206-0.416-0.281-0.625
		c-0.008-0.021-0.023-0.041-0.031-0.062c-0.032-0.092-0.036-0.188-0.062-0.281c-0.03-0.106-0.07-0.203-0.094-0.312
		C1.052,85.781,1,85.425,1,85.061v-2v-3H0z M95,80.061v3v2c0,0.364-0.053,0.721-0.125,1.062c-0.044,0.207-0.088,0.397-0.156,0.594
		c-0.008,0.021-0.023,0.041-0.031,0.062c-0.062,0.174-0.139,0.367-0.219,0.531c-0.041,0.083-0.079,0.17-0.125,0.25
		c-0.055,0.098-0.127,0.188-0.188,0.281c-0.094,0.141-0.205,0.275-0.312,0.406c-0.143,0.174-0.303,0.348-0.469,0.5
		c-0.012,0.01-0.02,0.021-0.031,0.031c-0.139,0.125-0.285,0.234-0.438,0.344c-0.103,0.073-0.204,0.153-0.312,0.219
		c-0.008,0.004-0.023-0.004-0.031,0c-0.232,0.139-0.463,0.275-0.719,0.375c0.302-0.097,0.597-0.204,0.875-0.344
		c0.557-0.279,1.061-0.666,1.5-1.094c0.22-0.214,0.409-0.441,0.594-0.688s0.355-0.508,0.5-0.781
		c0.141-0.266,0.276-0.525,0.375-0.812c0.01-0.031,0.021-0.062,0.031-0.094c0.09-0.278,0.139-0.58,0.188-0.875
		C95.959,84.711,96,84.396,96,84.061v-2v-2H95z"/>
</g>
</svg>
